<svg width="45" height="44" viewBox="0 0 45 44" fill="none" xmlns="http://www.w3.org/2000/svg">
<g clip-path="url(#clip0_327_794)">
<path fill-rule="evenodd" clip-rule="evenodd" d="M31.1303 2.6714C31.7054 0.0471157 35.4485 0.0314015 36.0457 2.65569L36.0771 2.7814L36.1305 3.0234C36.822 5.95883 39.1948 8.20283 42.1711 8.71826C44.9117 9.19597 44.9117 13.1308 42.1711 13.6085C40.7091 13.863 39.3549 14.5438 38.2785 15.5654C37.2021 16.587 36.4516 17.9038 36.1211 19.3505L36.0457 19.6743C35.4485 22.2954 31.7085 22.2828 31.1303 19.6523L31.0674 19.3757C30.7498 17.9243 30.0071 16.6003 28.9341 15.5726C27.8611 14.5449 26.5063 13.8601 25.0425 13.6054C22.3083 13.1277 22.3083 9.19912 25.0425 8.72454C26.5024 8.47104 27.8541 7.78965 28.9262 6.76681C29.9983 5.74397 30.7424 4.42577 31.0643 2.9794L31.1083 2.77826L31.1303 2.67454V2.6714ZM27.7328 20.108C27.562 19.3229 27.1625 18.6061 26.5847 18.0479C26.0069 17.4897 25.2767 17.1151 24.4863 16.9714V39.6471C25.5246 40.9904 26.9066 42.0281 28.4862 42.6506C30.0658 43.2731 31.7842 43.4572 33.4598 43.1836C35.1354 42.9099 36.7059 42.1885 38.0053 41.0958C39.3047 40.003 40.2847 38.5795 40.8417 36.9757C40.0047 36.8933 39.1825 36.6999 38.3965 36.4005C36.5265 35.6965 34.4931 34.3105 32.8243 31.8874C32.5288 31.4581 32.4159 30.9291 32.5105 30.4166C32.6051 29.9041 32.8994 29.4502 33.3287 29.1547C33.758 28.8592 34.287 28.7463 34.7995 28.8409C35.312 28.9355 35.7659 29.2298 36.0614 29.6591C37.262 31.4034 38.6385 32.296 39.7794 32.7234C40.3577 32.9434 40.8731 33.0377 41.2754 33.0691L41.3477 33.0754C43.2963 30.9571 44.522 26.8588 44.522 23.4363C44.522 21.1294 43.9657 18.854 43.004 16.9243L42.7557 16.9714C41.1214 17.2543 39.8203 18.4925 39.4525 20.108L39.3771 20.4285C37.9691 26.6105 29.1471 26.5728 27.7925 20.3783L27.7297 20.1048L27.7328 20.108ZM20.5577 14.5043C19.9154 13.5078 19.5738 12.3474 19.5738 11.1618C19.5738 9.9763 19.9154 8.81587 20.5577 7.8194V6.18512C19.4664 4.90235 18.0077 3.98539 16.3786 3.55804C14.7495 3.1307 13.0285 3.21356 11.4481 3.79545C9.8676 4.37733 8.50375 5.4302 7.54071 6.81189C6.57767 8.19357 6.06182 9.8375 6.06283 11.5217V11.528C6.1854 12.7537 6.68512 13.6651 7.2634 14.3251C7.98312 15.1454 8.74054 15.4817 8.91969 15.5194C9.42815 15.6348 9.86992 15.9475 10.1478 16.3887C10.4257 16.8299 10.517 17.3634 10.4015 17.8718C10.2861 18.3803 9.9734 18.8221 9.53223 19.1C9.09107 19.3779 8.55757 19.4691 8.04912 19.3537C6.91769 19.0928 5.47197 18.238 4.30912 16.918C3.83792 16.3801 3.43373 15.787 3.1054 15.1517C1.50254 17.3674 0.521973 20.3751 0.521973 23.4363C0.521973 25.7463 1.0814 28.3643 2.03997 30.47C2.2914 30.1871 2.56483 29.9294 2.85712 29.7031C3.05782 29.5297 3.29157 29.3988 3.54425 29.3182C3.79693 29.2376 4.06332 29.209 4.32736 29.2341C4.5914 29.2592 4.84761 29.3376 5.08054 29.4644C5.31348 29.5913 5.51832 29.764 5.68271 29.9721C5.8471 30.1802 5.96763 30.4195 6.03704 30.6755C6.10645 30.9315 6.1233 31.1989 6.08658 31.4615C6.04985 31.7242 5.96031 31.9767 5.82335 32.2039C5.6864 32.431 5.50486 32.628 5.28969 32.7831C4.73026 33.2263 4.14569 34.1785 3.7874 35.2817C4.0603 37.1078 4.86389 38.8135 6.09829 40.1866C7.33268 41.5598 8.94344 42.5398 10.7303 43.0049C12.5172 43.4701 14.4013 43.3998 16.1486 42.8028C17.8958 42.2058 19.429 41.1084 20.5577 39.6471V28.1128C19.2935 29.138 17.7602 29.7764 16.142 29.9514C15.8855 29.9801 15.6258 29.958 15.3779 29.8863C15.1299 29.8146 14.8985 29.6948 14.6968 29.5338C14.4952 29.3727 14.3272 29.1734 14.2025 28.9474C14.0779 28.7214 13.9989 28.4731 13.9703 28.2165C13.9416 27.96 13.9637 27.7004 14.0354 27.4524C14.107 27.2045 14.2268 26.973 14.3879 26.7714C14.549 26.5697 14.7482 26.4018 14.9743 26.2771C15.2003 26.1524 15.4486 26.0735 15.7051 26.0448C17.3048 25.8688 18.4677 24.948 19.2974 23.738C20.1397 22.5123 20.5043 21.1671 20.5577 20.5228V14.5043Z" fill="black"/>
</g>
<defs>
<clipPath id="clip0_327_794">
<rect width="44" height="44" fill="white" transform="translate(0.521973)"/>
</clipPath>
</defs>
</svg>
