<svg width="1294" height="546" viewBox="0 0 1294 546" fill="none" xmlns="http://www.w3.org/2000/svg">
<path d="M21.2323 3C21.2323 60.0526 21.8402 82.9806 21.8402 143.656M21.8402 143.656C21.8402 204.33 21.7462 314.917 21.2323 389.242C20.7184 463.568 20.3196 535.913 20.3196 535.913C20.3196 546.411 19.1955 534.022 19.2775 528.437C19.38 521.454 20.3635 322.796 20.3635 305.454C20.3635 288.111 21.2323 199.829 21.8402 143.656Z" stroke="black" stroke-width="6" stroke-miterlimit="10" stroke-linecap="round" stroke-linejoin="round"/>
<path d="M1051.59 527.73C1248.76 527.73 1221.22 527.73 1286 527.73C1284.89 528.004 1274.84 529.048 1270.7 529.26C1265.51 529.524 1129.59 529.38 1100.58 529.38C1001.27 529.38 552.651 528.393 523.291 528.393M1051.59 527.73C1051.59 527.73 576.058 529.38 500.214 529.38C424.371 529.38 442.309 529.425 282.195 529.38C162.49 529.347 19.351 529.38 9.71869 529.38C0.08638 529.38 3.64058 527.401 3.64058 527.401C70.9699 528.393 188.148 528.393 342.044 528.393C395.074 528.393 457.103 528.393 523.291 528.393M1051.59 527.73C907.459 527.73 703.183 528.393 523.291 528.393" stroke="black" stroke-width="6" stroke-miterlimit="10" stroke-linecap="round" stroke-linejoin="round"/>
<path d="M1271.45 273.672C1271.45 340.066 1272.8 381.84 1272.8 425.251C1272.8 468.663 1272.11 542.207 1272.11 542.207C1272.11 542.207 1270.52 545.306 1270.52 539.25C1270.52 533.194 1271.56 490.14 1271.45 428.266C1271.34 366.392 1271.34 301.557 1271.45 273.672ZM1271.45 273.672C1271.45 242.374 1270.72 178.441 1270.77 142.864C1270.81 102.971 1270.77 45.5211 1270.77 7" stroke="black" stroke-width="6" stroke-miterlimit="10" stroke-linecap="round" stroke-linejoin="round"/>
<path d="M13.9998 16.8621C83.4847 16.8621 144.109 16.8621 179.853 16.8621M179.853 16.8621C215.598 16.8621 374.303 17.1537 441.503 17.1537M179.853 16.8621C179.853 16.8621 257.368 15.9546 302.814 15.9546C348.261 15.9546 441.503 17.1537 441.503 17.1537M1291 17.1537C1219.88 17.1537 1252.76 16.8621 1182.13 16.8621C1141.86 16.8621 1092.6 17.348 1021.99 17.1537M630.656 15.9546C679.524 15.9827 934.952 16.9141 1021.99 17.1537M630.656 15.9546C580.115 15.9256 508.702 17.1537 441.503 17.1537M630.656 15.9546C630.656 15.9546 753.194 15.9546 821.823 15.9546M1021.99 17.1537C1021.99 17.1537 890.452 15.9546 821.823 15.9546M441.503 17.1537C482.691 17.1537 578.186 17.1537 630.656 17.1537C683.125 17.1537 779.963 16.3543 821.823 15.9546" stroke="black" stroke-width="6" stroke-miterlimit="10" stroke-linecap="round" stroke-linejoin="round"/>
</svg>
