<svg width="47" height="31" viewBox="0 0 47 31" fill="none" xmlns="http://www.w3.org/2000/svg">
<g clip-path="url(#clip0_339_1551)">
<path fill-rule="evenodd" clip-rule="evenodd" d="M36.5532 30.6727C36.5308 30.5452 36.4972 30.42 36.4527 30.2985C35.9849 29.2298 35.2097 28.3244 34.225 27.6969C32.7894 26.6514 31.0068 25.9726 29.497 25.0787C28.221 24.3189 27.1267 23.2907 26.2902 22.0653C25.4434 20.8434 24.8776 19.4494 24.6331 17.9825C24.3804 16.3371 24.5968 14.6526 25.2575 13.1213C25.9137 11.5685 26.9098 10.1811 28.1727 9.06123C29.1477 8.14388 30.3597 7.51645 31.6715 7.25001C32.3148 7.13873 32.9735 7.15501 33.6098 7.2979C34.246 7.4408 34.8475 7.7075 35.3797 8.08278C37.1953 9.30631 38.7081 10.9253 39.8047 12.8182C40.932 14.7062 41.5836 16.8399 41.7038 19.037C41.7127 19.3701 41.702 19.7035 41.6717 20.0356C41.5562 21.4992 41.1247 22.8715 41.1395 24.3289C41.1407 24.4624 41.1944 24.5899 41.2892 24.6838C41.3839 24.7778 41.512 24.8306 41.6458 24.831C41.7795 24.8271 41.9065 24.7714 42.0002 24.6758C42.0938 24.5803 42.1467 24.4522 42.1476 24.3188C42.1424 22.9193 42.5487 21.5394 42.6794 20.1307C42.715 19.7546 42.7256 19.3765 42.7111 18.9991C42.5939 16.6478 41.9093 14.3612 40.7155 12.334C39.5395 10.2891 37.9132 8.53851 35.9592 7.21378C34.6604 6.30772 33.0525 5.95461 31.4892 6.23214C29.9825 6.53393 28.5879 7.24635 27.4602 8.29026C26.0795 9.51584 24.989 11.0322 24.2678 12.7291C23.5284 14.4455 23.2861 16.3331 23.5683 18.177C23.842 19.7968 24.4642 21.337 25.3923 22.6917C26.3203 24.0464 27.5322 25.1835 28.9443 26.0246C30.4367 26.8857 32.1853 27.5405 33.6174 28.5528C34.4231 29.1295 35.0958 29.8712 35.5907 30.7287C35.643 30.8271 35.7253 30.9026 35.7861 31.0035C35.8058 31.0534 35.8354 31.0989 35.8731 31.1372C35.9107 31.1755 35.9557 31.2058 36.0054 31.2265C36.0551 31.2471 36.1084 31.2576 36.1622 31.2573C36.2161 31.2571 36.2694 31.246 36.319 31.2249C36.3694 31.2049 36.4154 31.1751 36.4542 31.1373C36.4931 31.0995 36.5241 31.0544 36.5454 31.0046C36.5667 30.9548 36.5779 30.9013 36.5783 30.8472C36.5788 30.7931 36.5685 30.7395 36.548 30.6895L36.5532 30.6727Z" fill="black"/>
<path fill-rule="evenodd" clip-rule="evenodd" d="M41.0173 24.9335C41.5231 26.1229 42.5034 27.649 43.0247 29.1456C43.4029 29.998 43.4668 30.9573 43.2051 31.8541C43.1196 32.0988 43.0088 32.3339 42.8744 32.5558C42.7297 32.7973 42.572 33.0309 42.4021 33.2556C42.2906 33.4083 42.1667 33.5516 42.0316 33.684C41.9154 33.7998 41.7818 33.8968 41.6356 33.9716C41.3189 34.1297 40.9868 34.2546 40.6445 34.3444C40.3458 34.4278 40.0332 34.4484 39.7266 34.4048C38.8738 34.1198 38.1652 33.5171 37.7482 32.7224C37.2103 31.9253 36.8499 31.022 36.6915 30.0731C36.6853 30.0074 36.6662 29.9435 36.6352 29.8852C36.6042 29.827 36.562 29.7754 36.511 29.7335C36.4599 29.6915 36.401 29.6601 36.3377 29.641C36.2744 29.6219 36.2079 29.6155 36.142 29.6221C36.0758 29.6277 36.0113 29.6464 35.9524 29.6772C35.8935 29.7081 35.8413 29.7504 35.799 29.8016C35.7567 29.8529 35.7251 29.9121 35.7061 29.9757C35.6871 30.0393 35.6811 30.106 35.6883 30.1718C35.8539 31.5172 36.3684 32.7951 37.1811 33.8793C37.7364 34.686 38.5642 35.266 39.5138 35.5135C39.8916 35.5778 40.2782 35.5741 40.6551 35.5026C41.1677 35.3949 41.6642 35.2205 42.1317 34.9839C42.3336 34.8829 42.5219 34.7569 42.6922 34.6088C42.9219 34.4041 43.1279 34.1746 43.3066 33.9245C43.538 33.6158 43.7494 33.2927 43.9393 32.9571C44.0639 32.7212 44.1687 32.4756 44.2526 32.2226C44.5211 31.3669 44.5247 30.4511 44.2629 29.595C43.779 27.798 42.4284 25.9991 41.757 24.6173C41.7351 24.5671 41.7032 24.5218 41.6633 24.4841C41.6234 24.4465 41.5763 24.4173 41.5248 24.3982C41.4733 24.3791 41.4185 24.3706 41.3635 24.3732C41.3086 24.3757 41.2547 24.3893 41.205 24.413C41.1552 24.4358 41.1103 24.4681 41.0729 24.5081C41.0355 24.5482 41.0064 24.5951 40.9872 24.6464C40.968 24.6976 40.9592 24.7521 40.9611 24.8067C40.9631 24.8613 40.9758 24.9149 40.9986 24.9645L41.0173 24.9335Z" fill="black"/>
<path fill-rule="evenodd" clip-rule="evenodd" d="M36.7404 30.9587C36.8357 30.9655 36.9314 30.9639 37.0264 30.9539C37.811 30.7424 38.5556 30.4034 39.2304 29.9503C40.052 29.5108 40.8405 29.0118 41.5895 28.4575C41.9006 28.222 42.1888 27.9566 42.4966 27.7018C42.6096 27.6213 42.6861 27.4993 42.7092 27.3628C42.7323 27.2262 42.7001 27.0863 42.6197 26.9738C42.5394 26.8613 42.4174 26.7853 42.2806 26.7627C42.1439 26.7401 42.0036 26.7726 41.8906 26.8532C41.5394 27.0399 41.1938 27.2237 40.8856 27.4647C40.1308 27.9642 39.424 28.5012 38.6627 28.9621C38.0301 29.3475 37.3137 29.5882 36.6656 30.0239C36.5779 30.0706 36.5408 30.1464 36.4617 30.2095C36.3711 30.2564 36.3007 30.3348 36.2641 30.4298C36.2274 30.5248 36.2269 30.6299 36.2627 30.725C36.2986 30.8201 36.3682 30.8987 36.4584 30.9459C36.5486 30.993 36.6531 31.0053 36.7521 30.9806L36.7404 30.9587Z" fill="black"/>
<path fill-rule="evenodd" clip-rule="evenodd" d="M46.2121 17.8807C46.5524 17.9273 46.8952 17.9533 47.2388 17.9587C47.7509 17.9055 48.2579 17.8096 48.7542 17.6718C48.8253 17.6659 48.8946 17.6454 48.9576 17.6118C49.0206 17.5781 49.0761 17.5318 49.1205 17.4759C49.165 17.42 49.1975 17.3556 49.216 17.2868C49.2346 17.2179 49.2387 17.1461 49.2283 17.0756C49.2179 17.0051 49.1931 16.9376 49.1554 16.8772C49.1177 16.8168 49.068 16.7648 49.0093 16.7244C48.9506 16.684 48.8842 16.6561 48.8142 16.6425C48.7441 16.6288 48.672 16.6296 48.6022 16.6448C48.1006 16.6942 47.5971 16.6604 47.0991 16.7429C46.7657 16.8259 46.4379 16.9299 46.1176 17.0545C46.0639 17.0603 46.0118 17.0766 45.9644 17.1026C45.9169 17.1285 45.8751 17.1636 45.8412 17.2057C45.8074 17.2478 45.7822 17.2961 45.7671 17.348C45.752 17.3998 45.7473 17.454 45.7533 17.5076C45.7663 17.6152 45.8209 17.7132 45.9056 17.7809C45.9902 17.8486 46.0981 17.8805 46.2062 17.8697L46.2121 17.8807Z" fill="black"/>
<path fill-rule="evenodd" clip-rule="evenodd" d="M44.3763 11.4108C44.5545 11.4427 44.7352 11.4592 44.9163 11.4602C45.183 11.4258 45.4439 11.3554 45.6919 11.2511C46.3065 11.0187 46.8892 10.7089 47.4256 10.3293C47.5388 10.2579 47.6191 10.1447 47.6489 10.0145C47.6786 9.88425 47.6554 9.74775 47.5842 9.63497C47.513 9.52219 47.3998 9.44238 47.2694 9.4131C47.139 9.38382 47.0022 9.40745 46.8889 9.47882C46.5595 9.67925 46.2188 9.86041 45.8685 10.0214C45.5228 10.2052 45.1348 10.2432 44.7521 10.3837C44.5985 10.4653 44.4503 10.5441 44.2803 10.6345C44.1724 10.6512 44.0752 10.7094 44.0097 10.7966C43.9443 10.8839 43.9157 10.9933 43.9301 11.1011C43.9479 11.208 44.0063 11.3038 44.0932 11.3686C44.1801 11.4334 44.2888 11.4622 44.3966 11.449L44.3763 11.4108Z" fill="black"/>
<path fill-rule="evenodd" clip-rule="evenodd" d="M41.5738 6.92056L42.1689 5.30006C42.2368 5.18942 42.2581 5.05655 42.2281 4.93057C42.198 4.8046 42.1191 4.69581 42.0086 4.62806C41.9545 4.59457 41.8942 4.57211 41.8312 4.56198C41.7682 4.55185 41.7038 4.55427 41.6417 4.56905C41.5796 4.58384 41.521 4.6107 41.4693 4.64813C41.4175 4.68556 41.3737 4.73283 41.3402 4.78717C41.1186 5.07616 40.9513 5.40269 40.8463 5.75091C40.7833 6.08341 40.7531 6.42119 40.7562 6.75937C40.7463 6.81242 40.747 6.86685 40.7583 6.91956C40.7696 6.97226 40.7912 7.02217 40.8219 7.06643C40.8527 7.11069 40.8919 7.14844 40.9374 7.17747C40.9828 7.2065 41.0336 7.22625 41.0868 7.2356C41.1943 7.25253 41.3042 7.22675 41.3931 7.16377C41.4819 7.10078 41.5426 7.00562 41.5622 6.89871L41.5738 6.92056Z" fill="black"/>
<path fill-rule="evenodd" clip-rule="evenodd" d="M19.5058 17.3011C19.3639 17.2797 19.2207 17.2668 19.0772 17.2625C18.5181 17.2799 17.9601 17.3262 17.4056 17.4012C17.3388 17.4077 17.2739 17.4272 17.2146 17.4587C17.1554 17.4902 17.1029 17.5331 17.0601 17.5848C17.0173 17.6365 16.9852 17.6961 16.9655 17.7601C16.9457 17.8241 16.9388 17.8914 16.9451 17.958C16.9514 18.0246 16.9708 18.0893 17.0022 18.1484C17.0336 18.2074 17.0764 18.2597 17.128 18.3022C17.1797 18.3447 17.2393 18.3766 17.3034 18.3961C17.3676 18.4156 17.4349 18.4223 17.5017 18.4158L19.549 18.1896C19.6071 18.1867 19.6641 18.1725 19.7168 18.1477C19.7695 18.123 19.8168 18.0881 19.856 18.0451C19.8952 18.0021 19.9256 17.9518 19.9454 17.8972C19.9652 17.8425 19.974 17.7846 19.9714 17.7266C19.9688 17.6686 19.9547 17.6118 19.93 17.5593C19.9053 17.5068 19.8705 17.4597 19.8276 17.4207C19.7846 17.3817 19.7343 17.3515 19.6796 17.3319C19.6249 17.3124 19.5669 17.3037 19.5087 17.3065L19.5058 17.3011Z" fill="black"/>
<path fill-rule="evenodd" clip-rule="evenodd" d="M20.8376 23.3657C20.7406 23.3827 20.6446 23.4057 20.5504 23.4343C20.1836 23.5802 19.834 23.7661 19.5079 23.9886C19.0732 24.2662 18.6743 24.5961 18.3201 24.9708C18.2332 25.0663 18.1869 25.1917 18.191 25.3204C18.195 25.4491 18.2492 25.571 18.3418 25.6603C18.4366 25.7482 18.5624 25.795 18.6919 25.7905C18.8213 25.786 18.9439 25.7307 19.0329 25.6364C19.2744 25.388 19.5387 25.1629 19.8225 24.9641C20.1695 24.7166 20.5742 24.5645 20.9347 24.3027C21.0261 24.2335 21.1134 24.159 21.1961 24.0796C21.2921 24.0285 21.364 23.9416 21.3959 23.8378C21.4279 23.734 21.4172 23.622 21.3663 23.5263C21.3155 23.4306 21.2285 23.3592 21.1247 23.3276C21.0208 23.2961 20.9085 23.307 20.8124 23.3581L20.8376 23.3657Z" fill="black"/>
<path fill-rule="evenodd" clip-rule="evenodd" d="M25.1259 27.9496C24.7948 28.2221 24.4799 28.5137 24.1827 28.8227C23.7722 29.3259 23.4155 29.8704 23.1183 30.4474C23.0808 30.5133 23.0567 30.586 23.0473 30.6611C23.0379 30.7363 23.0435 30.8126 23.0636 30.8855C23.0838 30.9584 23.1182 31.0266 23.1648 31.0862C23.2114 31.1459 23.2694 31.1957 23.3354 31.2329C23.4013 31.2701 23.4741 31.2939 23.5494 31.303C23.6247 31.3121 23.7011 31.3064 23.7742 31.286C23.8474 31.2657 23.9158 31.2312 23.9757 31.1844C24.0356 31.1377 24.0857 31.0797 24.1232 31.0138C24.4442 30.4925 24.8279 30.0361 25.1551 29.5396C25.3858 29.1926 25.5522 28.8307 25.7742 28.4673C25.8433 28.3825 25.8763 28.274 25.866 28.1653C25.8556 28.0566 25.8028 27.9565 25.7189 27.8867C25.6779 27.8518 25.6303 27.8254 25.5789 27.8092C25.5275 27.793 25.4733 27.7872 25.4195 27.7922C25.3658 27.7973 25.3136 27.8131 25.266 27.8386C25.2184 27.8641 25.1763 27.8989 25.1424 27.9408L25.1259 27.9496Z" fill="black"/>
</g>
<defs>
<clipPath id="clip0_339_1551">
<rect width="46.3688" height="30.7344" fill="white"/>
</clipPath>
</defs>
</svg>
