<svg width="70" height="70" viewBox="0 0 70 70" fill="none" xmlns="http://www.w3.org/2000/svg">
<rect x="1.5" y="1.5" width="67" height="67" rx="33.5" fill="#C5A1FF"/>
<rect x="1.5" y="1.5" width="67" height="67" rx="33.5" stroke="black" stroke-width="3"/>
<path d="M40.4099 18.8796C39.4692 19.2281 37.4173 20.6398 35.9171 21.9921L33.1639 24.4804L27.233 23.0467C20.302 21.4099 18.7694 21.3906 17.3956 22.902C15.7575 24.6834 16.0427 26.3731 18.7184 31.6724C20.1549 34.3833 21.216 36.9735 21.0952 37.349C20.9745 37.7245 19.5375 39.9849 17.9586 42.3181C16.3089 44.6877 14.9983 47.1071 15.0576 47.6588C15.1092 49.155 17.2663 49.2568 23.2933 47.9988C26.0846 47.4168 28.646 46.9975 28.9142 47.0837C29.2361 47.1872 30.6574 48.4728 32.1515 49.9002C35.3198 52.9313 37.0918 53.6786 39.2567 52.836C40.6054 52.3227 41.0614 51.6407 42.3262 48.2596L43.8516 44.252L47.8498 43.2295C53.0551 41.7664 55.4135 40.69 56.4118 39.0579C57.9178 36.583 55.1786 33.6899 49.6711 31.8597C46.3991 30.8076 45.0486 29.4856 45.1715 27.6312C45.3576 25.0277 44.8886 21.1483 44.18 19.8551C43.3794 18.2956 42.5575 18.0905 40.4099 18.8796ZM39.9052 26.7072C39.7672 27.1363 39.2882 27.3374 38.8591 27.1994C37.9473 26.9062 37.9281 26.7817 38.7903 25.7569C39.4763 24.9121 40.2846 25.5272 39.9052 26.7072ZM28.3702 29.4493C28.146 30.1466 25.9618 32.5219 25.6399 32.4184C24.9963 32.2114 22.7476 28.5291 22.9201 27.9927C23.0063 27.7245 23.6289 27.6288 24.3607 27.7457C25.5389 27.947 28.4564 29.1811 28.3702 29.4493ZM38.1171 32.8202C39.3392 33.805 39.4177 34.4812 38.9729 37.8893C38.7083 39.8165 38.6202 39.9065 35.2771 40.5479L31.8268 41.1548L30.1469 39.0167L28.4134 36.8613L29.9597 34.8135C32.7532 31.0954 35.1882 30.5171 38.1171 32.8202ZM48.4673 37.6279C47.8695 38.3826 45.0227 38.7693 44.4998 38.1869C44.3197 38.0106 44.2048 37.2634 44.2337 36.6217C44.2759 35.5699 44.5786 35.5489 46.6705 36.2215C48.387 36.7735 48.8716 37.1069 48.4673 37.6279ZM24.9569 41.9051C24.9051 42.066 24.6043 42.2652 24.2308 42.3226C23.9108 42.3973 23.6771 42.2038 23.7634 41.9356C23.8668 41.6137 24.2213 41.4318 24.4895 41.518C24.8113 41.6215 24.9914 41.7978 24.9569 41.9051Z" fill="black"/>
</svg>
