<svg width="916" height="199" viewBox="0 0 916 199" fill="none" xmlns="http://www.w3.org/2000/svg">
<path d="M358.98 2.14557C358.98 2.04376 358.734 27.5972 358.734 34.8255C358.734 53.9652 359.597 73.3085 359.597 92.2446C359.597 95.706 357.13 109.552 360.46 112.3C363.173 114.54 377.108 113.624 380.684 113.624L442.098 113.624C515.103 113.624 588.231 112.911 661.113 112.911C680.227 112.911 699.465 113.624 718.456 113.624C720.923 113.624 733.254 116.169 735.474 114.337C741.27 109.45 708.221 94.7897 703.165 86.3397C697.985 77.7879 702.918 65.673 695.889 57.0194C690.709 50.6056 681.584 49.8929 675.664 45.0062C667.895 38.5924 681.214 13.9551 669.252 8.96657C641.258 -2.5376 599.453 0.312995 568.253 0.312995C498.824 0.109381 427.546 2.14557 358.98 2.14557Z" fill="#FFDC58"/>
<path d="M411.06 112.854C411.06 112.956 411.329 87.4028 411.329 80.1745C411.329 61.0348 410.388 41.6915 410.388 22.7554C410.388 19.294 413.076 5.44833 409.447 2.69955C406.491 0.459808 391.303 1.37601 387.406 1.37601L320.475 1.37601C240.911 1.37601 161.213 2.08868 81.783 2.08868C60.9511 2.08868 39.9849 1.37601 19.2875 1.37601C16.5995 1.37601 3.15964 -1.16911 0.740448 0.663422C-5.57629 5.55015 30.4426 20.2103 35.9529 28.6603C41.5977 37.2121 36.2217 49.327 43.8824 57.9806C49.5272 64.3944 59.4727 65.1071 65.9239 69.9938C74.391 76.4076 59.8759 101.045 72.9126 106.033C103.421 117.538 148.982 114.687 182.985 114.687C258.652 114.891 336.334 112.854 411.06 112.854Z" fill="#FFDC58"/>
</svg>
