<svg width="1257" height="286" viewBox="0 0 1257 286" fill="none" xmlns="http://www.w3.org/2000/svg">
<path d="M319.652 5.4337C319.652 5.18069 319.039 68.6859 319.039 86.6496C319.039 134.215 321.185 182.287 321.185 229.347C321.185 237.949 315.055 272.358 323.33 279.19C330.072 284.756 364.704 282.479 373.591 282.479L526.214 282.479C707.646 282.479 889.384 280.708 1070.51 280.708C1118.01 280.708 1165.82 282.479 1213.02 282.479C1219.15 282.479 1249.79 288.804 1255.31 284.25C1269.72 272.105 1187.58 235.672 1175.02 214.672C1162.14 193.419 1174.4 163.311 1156.93 141.806C1144.06 125.866 1121.38 124.095 1106.67 111.951C1087.36 96.0109 1120.46 34.7826 1090.74 22.3852C1021.17 -6.20484 917.273 0.879415 839.735 0.879415C667.192 0.373396 490.051 5.4337 319.652 5.4337Z" fill="#FFDC58"/>
<path d="M1021.56 280.566C1021.56 280.819 1022.23 217.314 1022.23 199.35C1022.23 151.785 1019.89 103.713 1019.89 56.6532C1019.89 48.0509 1026.57 13.6417 1017.55 6.81049C1010.21 1.24429 972.464 3.52124 962.778 3.52124L796.443 3.52124C598.711 3.52124 400.645 5.29233 203.247 5.29233C151.476 5.29233 99.3706 3.52124 47.9336 3.52124C41.2535 3.52124 7.85284 -2.80386 1.8407 1.75031C-13.8575 13.8947 75.6561 50.3281 89.3504 71.3278C103.379 92.5806 90.0184 122.689 109.057 144.194C123.085 160.134 147.802 161.905 163.834 174.049C184.876 189.989 148.804 251.217 181.202 263.615C257.022 292.205 370.25 285.121 454.754 285.121C642.799 285.627 835.855 280.566 1021.56 280.566Z" fill="#FFDC58"/>
</svg>
