<svg width="126" height="126" viewBox="0 0 126 126" fill="none" xmlns="http://www.w3.org/2000/svg">
<g filter="url(#filter0_d_327_1194)">
<path d="M99.6549 58.4174V81.2406C99.6549 91.41 91.4111 99.6538 81.2417 99.6538H62.3062C59.0411 99.6538 55.8348 98.7856 53.0158 97.1381C50.1968 95.4906 47.8666 93.1231 46.2641 90.2783L41.4647 81.7618L37.3754 74.5111L37.0318 73.8925C36.5952 73.1059 36.4816 72.1802 36.715 71.3113C36.9484 70.4424 37.5106 69.6983 38.2826 69.2363L38.4647 69.1274C43.3558 66.3784 49.5413 68.108 52.3018 72.9991L53.8367 75.7253V32.0147C53.8367 30.5109 54.4341 29.0688 55.4975 28.0054C56.5608 26.9421 58.003 26.3447 59.5067 26.3447H59.6213C61.1251 26.3447 62.5673 26.9421 63.6306 28.0054C64.6939 29.0688 65.2913 30.5109 65.2913 32.0147V58.4174C65.2913 58.4174 65.2913 53.8356 71.0186 53.8356C76.7458 53.8356 76.7458 58.4174 76.7458 58.4174C76.7458 58.4174 76.7458 53.8356 82.4731 53.8356C88.2004 53.8356 88.2004 58.4174 88.2004 58.4174C88.2004 58.4174 88.2004 53.8356 93.9277 53.8356C99.6549 53.8356 99.6549 58.4174 99.6549 58.4174Z" fill="#2E3ECD"/>
</g>
<defs>
<filter id="filter0_d_327_1194" x="26.4463" y="14.3447" width="83.3586" height="93.6091" filterUnits="userSpaceOnUse" color-interpolation-filters="sRGB">
<feFlood flood-opacity="0" result="BackgroundImageFix"/>
<feColorMatrix in="SourceAlpha" type="matrix" values="0 0 0 0 0 0 0 0 0 0 0 0 0 0 0 0 0 0 127 0" result="hardAlpha"/>
<feOffset dy="-1.85"/>
<feGaussianBlur stdDeviation="5.075"/>
<feComposite in2="hardAlpha" operator="out"/>
<feColorMatrix type="matrix" values="0 0 0 0 0 0 0 0 0 0 0 0 0 0 0 0 0 0 0.4 0"/>
<feBlend mode="normal" in2="BackgroundImageFix" result="effect1_dropShadow_327_1194"/>
<feBlend mode="normal" in="SourceGraphic" in2="effect1_dropShadow_327_1194" result="shape"/>
</filter>
</defs>
</svg>
