<svg width="122" height="88" viewBox="0 0 122 88" fill="none" xmlns="http://www.w3.org/2000/svg">
<path d="M12.03 87.39C8.87 87.39 6.25 86.35 4.17 84.27C2.09 82.17 1.05 79.58 1.05 76.5C1.05 73.42 2.09 70.84 4.17 68.76C6.25 66.66 8.87 65.61 12.03 65.61C13.93 65.61 15.68 66.06 17.28 66.96C18.9 67.86 20.16 69.08 21.06 70.62L18.06 72.36C17.5 71.32 16.68 70.5 15.6 69.9C14.54 69.28 13.35 68.97 12.03 68.97C9.79 68.97 7.97 69.68 6.57 71.1C5.19 72.52 4.5 74.32 4.5 76.5C4.5 78.68 5.19 80.48 6.57 81.9C7.97 83.32 9.79 84.03 12.03 84.03C13.35 84.03 14.55 83.73 15.63 83.13C16.71 82.51 17.52 81.68 18.06 80.64L21.06 82.35C20.18 83.89 18.93 85.12 17.31 86.04C15.71 86.94 13.95 87.39 12.03 87.39ZM30.2527 71.61C31.9727 71.61 33.3627 72.16 34.4227 73.26C35.4827 74.36 36.0127 75.87 36.0127 77.79V87H32.7727V78.12C32.7727 77 32.4727 76.14 31.8727 75.54C31.2727 74.94 30.4527 74.64 29.4127 74.64C28.2727 74.64 27.3527 75 26.6527 75.72C25.9527 76.42 25.6027 77.5 25.6027 78.96V87H22.3627V66H25.6027V73.92C26.5827 72.38 28.1327 71.61 30.2527 71.61ZM41.0613 69.15C40.6613 69.55 40.1813 69.75 39.6213 69.75C39.0613 69.75 38.5713 69.55 38.1513 69.15C37.7513 68.73 37.5513 68.24 37.5513 67.68C37.5513 67.12 37.7513 66.64 38.1513 66.24C38.5513 65.82 39.0413 65.61 39.6213 65.61C40.2013 65.61 40.6913 65.82 41.0913 66.24C41.4913 66.64 41.6913 67.12 41.6913 67.68C41.6913 68.24 41.4813 68.73 41.0613 69.15ZM38.0013 87V72H41.2413V87H38.0013ZM50.5833 87.39C48.3233 87.39 46.4333 86.63 44.9133 85.11C43.4133 83.59 42.6633 81.72 42.6633 79.5C42.6633 77.26 43.4133 75.39 44.9133 73.89C46.4333 72.37 48.3233 71.61 50.5833 71.61C52.0433 71.61 53.3733 71.96 54.5733 72.66C55.7733 73.36 56.6733 74.3 57.2733 75.48L54.4833 77.1C54.1433 76.38 53.6233 75.82 52.9233 75.42C52.2433 75 51.4533 74.79 50.5533 74.79C49.2333 74.79 48.1233 75.24 47.2233 76.14C46.3433 77.04 45.9033 78.16 45.9033 79.5C45.9033 80.84 46.3433 81.96 47.2233 82.86C48.1233 83.76 49.2333 84.21 50.5533 84.21C51.4333 84.21 52.2233 84 52.9233 83.58C53.6433 83.16 54.1833 82.6 54.5433 81.9L57.3333 83.49C56.6933 84.69 55.7733 85.64 54.5733 86.34C53.3733 87.04 52.0433 87.39 50.5833 87.39ZM70.833 76.11C71.753 76.59 72.473 77.25 72.993 78.09C73.513 78.93 73.773 79.9 73.773 81C73.773 82.72 73.163 84.15 71.943 85.29C70.723 86.43 69.233 87 67.473 87H58.473V66H66.813C68.533 66 69.983 66.56 71.163 67.68C72.363 68.78 72.963 70.16 72.963 71.82C72.963 73.64 72.253 75.07 70.833 76.11ZM66.813 69.24H61.923V74.76H66.813C67.573 74.76 68.213 74.5 68.733 73.98C69.253 73.44 69.513 72.78 69.513 72C69.513 71.22 69.253 70.57 68.733 70.05C68.213 69.51 67.573 69.24 66.813 69.24ZM67.473 83.76C68.273 83.76 68.943 83.48 69.483 82.92C70.043 82.34 70.323 81.64 70.323 80.82C70.323 80 70.043 79.31 69.483 78.75C68.943 78.17 68.273 77.88 67.473 77.88H61.923V83.76H67.473ZM78.3136 74.52C79.1336 72.66 80.6736 71.73 82.9336 71.73V75.24C81.6936 75.16 80.6136 75.46 79.6936 76.14C78.7736 76.8 78.3136 77.9 78.3136 79.44V87H75.0736V72H78.3136V74.52ZM95.0044 72H98.2444V87H95.0044V84.84C93.7844 86.54 92.0344 87.39 89.7544 87.39C87.6944 87.39 85.9344 86.63 84.4744 85.11C83.0144 83.57 82.2844 81.7 82.2844 79.5C82.2844 77.28 83.0144 75.41 84.4744 73.89C85.9344 72.37 87.6944 71.61 89.7544 71.61C92.0344 71.61 93.7844 72.45 95.0044 74.13V72ZM86.8744 82.95C87.7744 83.85 88.9044 84.3 90.2644 84.3C91.6244 84.3 92.7544 83.85 93.6544 82.95C94.5544 82.03 95.0044 80.88 95.0044 79.5C95.0044 78.12 94.5544 76.98 93.6544 76.08C92.7544 75.16 91.6244 74.7 90.2644 74.7C88.9044 74.7 87.7744 75.16 86.8744 76.08C85.9744 76.98 85.5244 78.12 85.5244 79.5C85.5244 80.88 85.9744 82.03 86.8744 82.95ZM103.581 69.15C103.181 69.55 102.701 69.75 102.141 69.75C101.581 69.75 101.091 69.55 100.671 69.15C100.271 68.73 100.071 68.24 100.071 67.68C100.071 67.12 100.271 66.64 100.671 66.24C101.071 65.82 101.561 65.61 102.141 65.61C102.721 65.61 103.211 65.82 103.611 66.24C104.011 66.64 104.211 67.12 104.211 67.68C104.211 68.24 104.001 68.73 103.581 69.15ZM100.521 87V72H103.761V87H100.521ZM113.913 71.61C115.633 71.61 117.023 72.16 118.083 73.26C119.143 74.36 119.673 75.87 119.673 77.79V87H116.433V78.12C116.433 77 116.133 76.14 115.533 75.54C114.933 74.94 114.113 74.64 113.073 74.64C111.933 74.64 111.013 75 110.313 75.72C109.613 76.42 109.263 77.5 109.263 78.96V87H106.023V72H109.263V73.92C110.243 72.38 111.793 71.61 113.913 71.61Z" fill="black"/>
<path d="M97.2087 24.4624L97.2163 24.4691C99.8704 26.7807 101.433 30.2237 101.523 33.9567C101.521 36.0061 101.011 37.8916 100.147 39.6223C98.3809 42.8904 94.8347 44.849 91.0841 44.849C86.8646 44.849 83.5096 48.5278 84.046 52.8487C84.0463 52.8508 84.0465 52.8529 84.0468 52.855L84.6959 58.6051C84.696 58.6057 84.6961 58.6064 84.6961 58.6071C85.0906 62.2475 82.0128 65.3126 78.307 64.7623C76.294 64.4518 74.6194 62.9703 73.8914 60.9523C70.4941 51.2515 61.3732 44.849 51.1871 44.849H25.2401C21.2113 44.849 17.5139 42.7114 15.927 39.126C15.4146 37.9286 15.0801 36.5764 15.0801 35.154C15.0801 31.1349 17.5903 27.5545 21.5634 25.7407L22.2143 25.4435L22.1431 24.7315C21.9727 23.0273 22.1394 21.2558 23.0795 19.2041C25.1391 14.7427 29.7001 11.974 34.6331 11.974C36.026 11.974 37.3635 11.1988 37.8964 9.73891C39.8013 4.63463 44.7348 1 50.5361 1C53.5749 1 56.343 1.95308 58.5905 3.59402C60.0205 4.6633 61.9421 4.79038 63.5049 3.83822C65.4566 2.73906 67.7614 2.22115 70.2654 2.39188C73.1034 2.65233 75.7668 3.85595 77.8302 5.83028C78.7933 6.78802 80.2314 7.27606 81.591 7.02887L81.6101 7.0254L81.629 7.02119C82.3237 6.86681 83.0443 6.85983 83.9166 6.94706L83.9275 6.94815L83.9384 6.949C90.6099 7.46886 95.9431 13.1077 95.9431 19.437C95.9431 19.9067 95.9407 20.1868 95.8695 20.5429L95.8663 20.5587L95.8637 20.5746C95.6239 22.0131 96.1024 23.4791 97.2087 24.4624Z" fill="black" fill-opacity="0.9" stroke="black" stroke-width="2"/>
<g filter="url(#filter0_i_432_4760)">
<circle cx="41.1991" cy="34.579" r="6.65907" fill="#FDCD54"/>
</g>
<g filter="url(#filter1_i_432_4760)">
<circle cx="55.4921" cy="34.579" r="6.65907" fill="#A1D469"/>
</g>
<g filter="url(#filter2_i_432_4760)">
<circle cx="56.9533" cy="22.2353" r="3.73557" fill="#EC5564"/>
</g>
<g filter="url(#filter3_i_432_4760)">
<circle cx="68.8104" cy="18.0128" r="6.65907" fill="#4FBFE6"/>
</g>
<g filter="url(#filter4_i_432_4760)">
<circle cx="82.119" cy="41.069" r="6.65907" fill="#FDCD54"/>
</g>
<g filter="url(#filter5_i_432_4760)">
<circle cx="75.9995" cy="52.6196" r="3.32953" fill="#FDCD54"/>
</g>
<g filter="url(#filter6_ii_432_4760)">
<circle cx="84.9091" cy="26.1891" r="6.65907" fill="#AB92EA"/>
</g>
<g filter="url(#filter7_i_432_4760)">
<circle cx="70.0292" cy="34.559" r="6.65907" fill="#EC5564"/>
</g>
<g filter="url(#filter8_i_432_4760)">
<circle cx="46.7214" cy="20.9363" r="5.0349" fill="#F384D4"/>
</g>
<g filter="url(#filter9_i_432_4760)">
<circle cx="57.2449" cy="11.5449" r="5.0349" fill="#5AB5E8"/>
</g>
<defs>
<filter id="filter0_i_432_4760" x="34.54" y="27.9199" width="13.8056" height="13.8866" filterUnits="userSpaceOnUse" color-interpolation-filters="sRGB">
<feFlood flood-opacity="0" result="BackgroundImageFix"/>
<feBlend mode="normal" in="SourceGraphic" in2="BackgroundImageFix" result="shape"/>
<feColorMatrix in="SourceAlpha" type="matrix" values="0 0 0 0 0 0 0 0 0 0 0 0 0 0 0 0 0 0 127 0" result="hardAlpha"/>
<feOffset dx="0.487249" dy="0.649665"/>
<feGaussianBlur stdDeviation="0.284228"/>
<feComposite in2="hardAlpha" operator="arithmetic" k2="-1" k3="1"/>
<feColorMatrix type="matrix" values="0 0 0 0 0 0 0 0 0 0 0 0 0 0 0 0 0 0 0.25 0"/>
<feBlend mode="normal" in2="shape" result="effect1_innerShadow_432_4760"/>
</filter>
<filter id="filter1_i_432_4760" x="48.833" y="27.9199" width="13.8056" height="13.8866" filterUnits="userSpaceOnUse" color-interpolation-filters="sRGB">
<feFlood flood-opacity="0" result="BackgroundImageFix"/>
<feBlend mode="normal" in="SourceGraphic" in2="BackgroundImageFix" result="shape"/>
<feColorMatrix in="SourceAlpha" type="matrix" values="0 0 0 0 0 0 0 0 0 0 0 0 0 0 0 0 0 0 127 0" result="hardAlpha"/>
<feOffset dx="0.487249" dy="0.649665"/>
<feGaussianBlur stdDeviation="0.284228"/>
<feComposite in2="hardAlpha" operator="arithmetic" k2="-1" k3="1"/>
<feColorMatrix type="matrix" values="0 0 0 0 0 0 0 0 0 0 0 0 0 0 0 0 0 0 0.25 0"/>
<feBlend mode="normal" in2="shape" result="effect1_innerShadow_432_4760"/>
</filter>
<filter id="filter2_i_432_4760" x="53.2178" y="18.4998" width="7.95795" height="8.03965" filterUnits="userSpaceOnUse" color-interpolation-filters="sRGB">
<feFlood flood-opacity="0" result="BackgroundImageFix"/>
<feBlend mode="normal" in="SourceGraphic" in2="BackgroundImageFix" result="shape"/>
<feColorMatrix in="SourceAlpha" type="matrix" values="0 0 0 0 0 0 0 0 0 0 0 0 0 0 0 0 0 0 127 0" result="hardAlpha"/>
<feOffset dx="0.487249" dy="0.649665"/>
<feGaussianBlur stdDeviation="0.284228"/>
<feComposite in2="hardAlpha" operator="arithmetic" k2="-1" k3="1"/>
<feColorMatrix type="matrix" values="0 0 0 0 0 0 0 0 0 0 0 0 0 0 0 0 0 0 0.25 0"/>
<feBlend mode="normal" in2="shape" result="effect1_innerShadow_432_4760"/>
</filter>
<filter id="filter3_i_432_4760" x="62.1514" y="11.3538" width="13.8056" height="13.8866" filterUnits="userSpaceOnUse" color-interpolation-filters="sRGB">
<feFlood flood-opacity="0" result="BackgroundImageFix"/>
<feBlend mode="normal" in="SourceGraphic" in2="BackgroundImageFix" result="shape"/>
<feColorMatrix in="SourceAlpha" type="matrix" values="0 0 0 0 0 0 0 0 0 0 0 0 0 0 0 0 0 0 127 0" result="hardAlpha"/>
<feOffset dx="0.487249" dy="0.649665"/>
<feGaussianBlur stdDeviation="0.284228"/>
<feComposite in2="hardAlpha" operator="arithmetic" k2="-1" k3="1"/>
<feColorMatrix type="matrix" values="0 0 0 0 0 0 0 0 0 0 0 0 0 0 0 0 0 0 0.25 0"/>
<feBlend mode="normal" in2="shape" result="effect1_innerShadow_432_4760"/>
</filter>
<filter id="filter4_i_432_4760" x="75.46" y="34.4099" width="13.8056" height="13.8866" filterUnits="userSpaceOnUse" color-interpolation-filters="sRGB">
<feFlood flood-opacity="0" result="BackgroundImageFix"/>
<feBlend mode="normal" in="SourceGraphic" in2="BackgroundImageFix" result="shape"/>
<feColorMatrix in="SourceAlpha" type="matrix" values="0 0 0 0 0 0 0 0 0 0 0 0 0 0 0 0 0 0 127 0" result="hardAlpha"/>
<feOffset dx="0.487249" dy="0.649665"/>
<feGaussianBlur stdDeviation="0.284228"/>
<feComposite in2="hardAlpha" operator="arithmetic" k2="-1" k3="1"/>
<feColorMatrix type="matrix" values="0 0 0 0 0 0 0 0 0 0 0 0 0 0 0 0 0 0 0.25 0"/>
<feBlend mode="normal" in2="shape" result="effect1_innerShadow_432_4760"/>
</filter>
<filter id="filter5_i_432_4760" x="72.6699" y="49.29" width="7.14643" height="7.22764" filterUnits="userSpaceOnUse" color-interpolation-filters="sRGB">
<feFlood flood-opacity="0" result="BackgroundImageFix"/>
<feBlend mode="normal" in="SourceGraphic" in2="BackgroundImageFix" result="shape"/>
<feColorMatrix in="SourceAlpha" type="matrix" values="0 0 0 0 0 0 0 0 0 0 0 0 0 0 0 0 0 0 127 0" result="hardAlpha"/>
<feOffset dx="0.487249" dy="0.649665"/>
<feGaussianBlur stdDeviation="0.284228"/>
<feComposite in2="hardAlpha" operator="arithmetic" k2="-1" k3="1"/>
<feColorMatrix type="matrix" values="0 0 0 0 0 0 0 0 0 0 0 0 0 0 0 0 0 0 0.25 0"/>
<feBlend mode="normal" in2="shape" result="effect1_innerShadow_432_4760"/>
</filter>
<filter id="filter6_ii_432_4760" x="77.6003" y="19.0428" width="14.4553" height="14.3738" filterUnits="userSpaceOnUse" color-interpolation-filters="sRGB">
<feFlood flood-opacity="0" result="BackgroundImageFix"/>
<feBlend mode="normal" in="SourceGraphic" in2="BackgroundImageFix" result="shape"/>
<feColorMatrix in="SourceAlpha" type="matrix" values="0 0 0 0 0 0 0 0 0 0 0 0 0 0 0 0 0 0 127 0" result="hardAlpha"/>
<feOffset dx="0.487249" dy="0.649665"/>
<feGaussianBlur stdDeviation="0.284228"/>
<feComposite in2="hardAlpha" operator="arithmetic" k2="-1" k3="1"/>
<feColorMatrix type="matrix" values="0 0 0 0 0 0 0 0 0 0 0 0 0 0 0 0 0 0 0.25 0"/>
<feBlend mode="normal" in2="shape" result="effect1_innerShadow_432_4760"/>
<feColorMatrix in="SourceAlpha" type="matrix" values="0 0 0 0 0 0 0 0 0 0 0 0 0 0 0 0 0 0 127 0" result="hardAlpha"/>
<feOffset dx="-0.649665" dy="-0.487249"/>
<feGaussianBlur stdDeviation="0.324833"/>
<feComposite in2="hardAlpha" operator="arithmetic" k2="-1" k3="1"/>
<feColorMatrix type="matrix" values="0 0 0 0 0 0 0 0 0 0 0 0 0 0 0 0 0 0 0.25 0"/>
<feBlend mode="normal" in2="effect1_innerShadow_432_4760" result="effect2_innerShadow_432_4760"/>
</filter>
<filter id="filter7_i_432_4760" x="63.3701" y="27.8999" width="13.8056" height="13.8866" filterUnits="userSpaceOnUse" color-interpolation-filters="sRGB">
<feFlood flood-opacity="0" result="BackgroundImageFix"/>
<feBlend mode="normal" in="SourceGraphic" in2="BackgroundImageFix" result="shape"/>
<feColorMatrix in="SourceAlpha" type="matrix" values="0 0 0 0 0 0 0 0 0 0 0 0 0 0 0 0 0 0 127 0" result="hardAlpha"/>
<feOffset dx="0.487249" dy="0.649665"/>
<feGaussianBlur stdDeviation="0.284228"/>
<feComposite in2="hardAlpha" operator="arithmetic" k2="-1" k3="1"/>
<feColorMatrix type="matrix" values="0 0 0 0 0 0 0 0 0 0 0 0 0 0 0 0 0 0 0.25 0"/>
<feBlend mode="normal" in2="shape" result="effect1_innerShadow_432_4760"/>
</filter>
<filter id="filter8_i_432_4760" x="41.6865" y="15.9014" width="10.5566" height="10.6383" filterUnits="userSpaceOnUse" color-interpolation-filters="sRGB">
<feFlood flood-opacity="0" result="BackgroundImageFix"/>
<feBlend mode="normal" in="SourceGraphic" in2="BackgroundImageFix" result="shape"/>
<feColorMatrix in="SourceAlpha" type="matrix" values="0 0 0 0 0 0 0 0 0 0 0 0 0 0 0 0 0 0 127 0" result="hardAlpha"/>
<feOffset dx="0.487249" dy="0.649665"/>
<feGaussianBlur stdDeviation="0.284228"/>
<feComposite in2="hardAlpha" operator="arithmetic" k2="-1" k3="1"/>
<feColorMatrix type="matrix" values="0 0 0 0 0 0 0 0 0 0 0 0 0 0 0 0 0 0 0.25 0"/>
<feBlend mode="normal" in2="shape" result="effect1_innerShadow_432_4760"/>
</filter>
<filter id="filter9_i_432_4760" x="52.21" y="6.51001" width="10.5566" height="10.6383" filterUnits="userSpaceOnUse" color-interpolation-filters="sRGB">
<feFlood flood-opacity="0" result="BackgroundImageFix"/>
<feBlend mode="normal" in="SourceGraphic" in2="BackgroundImageFix" result="shape"/>
<feColorMatrix in="SourceAlpha" type="matrix" values="0 0 0 0 0 0 0 0 0 0 0 0 0 0 0 0 0 0 127 0" result="hardAlpha"/>
<feOffset dx="0.487249" dy="0.649665"/>
<feGaussianBlur stdDeviation="0.284228"/>
<feComposite in2="hardAlpha" operator="arithmetic" k2="-1" k3="1"/>
<feColorMatrix type="matrix" values="0 0 0 0 0 0 0 0 0 0 0 0 0 0 0 0 0 0 0.25 0"/>
<feBlend mode="normal" in2="shape" result="effect1_innerShadow_432_4760"/>
</filter>
</defs>
</svg>
