<svg width="250" height="49" viewBox="0 0 250 49" fill="none" xmlns="http://www.w3.org/2000/svg">
<g clip-path="url(#clip0_404_676)">
<path fill-rule="evenodd" clip-rule="evenodd" d="M30.6083 3.6714C31.1834 1.04712 34.9266 1.0314 35.5237 3.65569L35.5551 3.7814L35.6086 4.0234C36.3 6.95883 38.6729 9.20283 41.6491 9.71826C44.3897 10.196 44.3897 14.1308 41.6491 14.6085C40.1871 14.863 38.8329 15.5438 37.7565 16.5654C36.6801 17.587 35.9296 18.9038 35.5991 20.3505L35.5237 20.6743C34.9266 23.2954 31.1866 23.2828 30.6083 20.6523L30.5454 20.3757C30.2278 18.9243 29.4852 17.6003 28.4121 16.5726C27.3391 15.5449 25.9843 14.8601 24.5206 14.6054C21.7863 14.1277 21.7863 10.1991 24.5206 9.72454C25.9805 9.47104 27.3322 8.78965 28.4043 7.76681C29.4763 6.74397 30.2205 5.42577 30.5423 3.9794L30.5863 3.77826L30.6083 3.67454V3.6714ZM27.2109 21.108C27.04 20.3229 26.6405 19.6061 26.0627 19.0479C25.4849 18.4897 24.7547 18.1151 23.9643 17.9714V40.6471C25.0027 41.9904 26.3847 43.0281 27.9642 43.6506C29.5438 44.2731 31.2622 44.4572 32.9378 44.1836C34.6134 43.9099 36.1839 43.1885 37.4833 42.0958C38.7827 41.003 39.7627 39.5795 40.3197 37.9757C39.4828 37.8933 38.6605 37.6999 37.8746 37.4005C36.0046 36.6965 33.9711 35.3105 32.3023 32.8874C32.0068 32.4581 31.8939 31.9291 31.9885 31.4166C32.0831 30.9041 32.3774 30.4502 32.8067 30.1547C33.236 29.8592 33.7651 29.7463 34.2775 29.8409C34.79 29.9355 35.2439 30.2298 35.5394 30.6591C36.74 32.4034 38.1166 33.296 39.2574 33.7234C39.8357 33.9434 40.3511 34.0377 40.7534 34.0691L40.8257 34.0754C42.7743 31.9571 44 27.8588 44 24.4363C44 22.1294 43.4437 19.854 42.482 17.9243L42.2337 17.9714C40.5994 18.2543 39.2983 19.4925 38.9306 21.108L38.8551 21.4285C37.4471 27.6105 28.6251 27.5728 27.2706 21.3783L27.2077 21.1048L27.2109 21.108ZM20.0357 15.5043C19.3934 14.5078 19.0518 13.3474 19.0518 12.1618C19.0518 10.9763 19.3934 9.81587 20.0357 8.8194V7.18512C18.9444 5.90235 17.4857 4.98539 15.8566 4.55804C14.2275 4.1307 12.5066 4.21356 10.9261 4.79545C9.34562 5.37733 7.98178 6.4302 7.01874 7.81189C6.0557 9.19357 5.53985 10.8375 5.54086 12.5217V12.528C5.66343 13.7537 6.16314 14.6651 6.74143 15.3251C7.46114 16.1454 8.21857 16.4817 8.39771 16.5194C8.90617 16.6348 9.34795 16.9475 9.62585 17.3887C9.90375 17.8299 9.99502 18.3634 9.87957 18.8718C9.76413 19.3803 9.45143 19.8221 9.01026 20.1C8.56909 20.3779 8.0356 20.4691 7.52714 20.3537C6.39571 20.0928 4.95 19.238 3.78714 17.918C3.31595 17.3801 2.91176 16.787 2.58343 16.1517C0.980571 18.3674 0 21.3751 0 24.4363C0 26.7463 0.559429 29.3643 1.518 31.47C1.76943 31.1871 2.04286 30.9294 2.33514 30.7031C2.53585 30.5297 2.76959 30.3988 3.02228 30.3182C3.27496 30.2376 3.54135 30.209 3.80539 30.2341C4.06942 30.2592 4.32563 30.3376 4.55857 30.4644C4.79151 30.5913 4.99635 30.764 5.16074 30.9721C5.32512 31.1802 5.44566 31.4195 5.51507 31.6755C5.58448 31.9315 5.60133 32.1989 5.56461 32.4615C5.52788 32.7242 5.43834 32.9767 5.30138 33.2039C5.16442 33.431 4.98289 33.628 4.76771 33.7831C4.20829 34.2263 3.62371 35.1785 3.26543 36.2817C3.53832 38.1078 4.34192 39.8135 5.57631 41.1866C6.81071 42.5598 8.42146 43.5398 10.2083 44.0049C11.9952 44.4701 13.8794 44.3998 15.6266 43.8028C17.3738 43.2058 18.9071 42.1084 20.0357 40.6471V29.1128C18.7715 30.138 17.2382 30.7764 15.62 30.9514C15.3635 30.9801 15.1038 30.958 14.8559 30.8863C14.6079 30.8146 14.3765 30.6948 14.1748 30.5338C13.9732 30.3727 13.8052 30.1734 13.6806 29.9474C13.5559 29.7214 13.477 29.4731 13.4483 29.2165C13.4196 28.96 13.4417 28.7004 13.5134 28.4524C13.585 28.2045 13.7048 27.973 13.8659 27.7714C14.027 27.5697 14.2263 27.4018 14.4523 27.2771C14.6783 27.1524 14.9266 27.0735 15.1831 27.0448C16.7829 26.8688 17.9457 25.948 18.7754 24.738C19.6177 23.5123 19.9823 22.1671 20.0357 21.5228V15.5043Z" fill="url(#paint0_linear_404_676)"/>
</g>
<mask id="path-2-outside-1_404_676" maskUnits="userSpaceOnUse" x="50" y="8" width="199" height="36" fill="black">
<rect fill="white" x="50" y="8" width="199" height="36"/>
<path d="M61.268 35.504C59.444 35.504 57.812 35.18 56.372 34.532C54.932 33.884 53.792 32.912 52.952 31.616C52.136 30.296 51.728 28.652 51.728 26.684V25.928H54.716V26.684C54.716 28.772 55.328 30.332 56.552 31.364C57.776 32.372 59.348 32.876 61.268 32.876C63.236 32.876 64.736 32.432 65.768 31.544C66.8 30.656 67.316 29.54 67.316 28.196C67.316 27.26 67.076 26.516 66.596 25.964C66.14 25.412 65.492 24.968 64.652 24.632C63.812 24.272 62.828 23.96 61.7 23.696L59.828 23.228C58.364 22.844 57.068 22.376 55.94 21.824C54.812 21.272 53.924 20.552 53.276 19.664C52.652 18.752 52.34 17.588 52.34 16.172C52.34 14.756 52.688 13.532 53.384 12.5C54.104 11.468 55.1 10.676 56.372 10.124C57.668 9.572 59.156 9.296 60.836 9.296C62.54 9.296 64.064 9.596 65.408 10.196C66.776 10.772 67.844 11.636 68.612 12.788C69.404 13.916 69.8 15.344 69.8 17.072V18.584H66.812V17.072C66.812 15.848 66.548 14.864 66.02 14.12C65.516 13.376 64.808 12.824 63.896 12.464C63.008 12.104 61.988 11.924 60.836 11.924C59.18 11.924 57.848 12.296 56.84 13.04C55.832 13.76 55.328 14.792 55.328 16.136C55.328 17.024 55.544 17.744 55.976 18.296C56.408 18.848 57.02 19.304 57.812 19.664C58.604 20 59.552 20.3 60.656 20.564L62.528 21.032C63.992 21.344 65.3 21.776 66.452 22.328C67.628 22.856 68.564 23.588 69.26 24.524C69.956 25.436 70.304 26.636 70.304 28.124C70.304 29.612 69.932 30.908 69.188 32.012C68.444 33.116 67.388 33.98 66.02 34.604C64.676 35.204 63.092 35.504 61.268 35.504ZM81.7981 35.324C80.5261 35.324 79.3501 35.048 78.2701 34.496C77.2141 33.944 76.3741 33.128 75.7501 32.048C75.1501 30.944 74.8501 29.612 74.8501 28.052V17.396H77.6941V27.836C77.6941 29.588 78.1261 30.86 78.9901 31.652C79.8781 32.444 81.0661 32.84 82.5541 32.84C84.2341 32.84 85.6141 32.288 86.6941 31.184C87.7741 30.08 88.3141 28.436 88.3141 26.252V17.396H91.1581V35H88.3861V32.012H87.8821C87.4981 32.852 86.8381 33.62 85.9021 34.316C84.9661 34.988 83.5981 35.324 81.7981 35.324ZM97.1091 42.2V17.396H99.8811V20.312H100.385C100.841 19.424 101.573 18.632 102.581 17.936C103.613 17.24 105.041 16.892 106.865 16.892C108.377 16.892 109.757 17.264 111.005 18.008C112.277 18.728 113.285 19.76 114.029 21.104C114.797 22.448 115.181 24.068 115.181 25.964V26.432C115.181 28.304 114.809 29.924 114.065 31.292C113.321 32.66 112.313 33.704 111.041 34.424C109.793 35.144 108.401 35.504 106.865 35.504C105.641 35.504 104.597 35.336 103.733 35C102.893 34.688 102.209 34.28 101.681 33.776C101.153 33.272 100.745 32.756 100.457 32.228H99.9531V42.2H97.1091ZM106.109 32.984C107.933 32.984 109.409 32.408 110.537 31.256C111.689 30.08 112.265 28.448 112.265 26.36V26.036C112.265 23.948 111.689 22.328 110.537 21.176C109.409 20 107.933 19.412 106.109 19.412C104.309 19.412 102.821 20 101.645 21.176C100.493 22.328 99.9171 23.948 99.9171 26.036V26.36C99.9171 28.448 100.493 30.08 101.645 31.256C102.821 32.408 104.309 32.984 106.109 32.984ZM128.341 35.504C126.565 35.504 125.005 35.132 123.661 34.388C122.317 33.62 121.273 32.552 120.529 31.184C119.785 29.816 119.413 28.232 119.413 26.432V26C119.413 24.176 119.785 22.58 120.529 21.212C121.273 19.844 122.305 18.788 123.625 18.044C124.945 17.276 126.457 16.892 128.161 16.892C129.817 16.892 131.281 17.252 132.553 17.972C133.825 18.668 134.821 19.676 135.541 20.996C136.261 22.316 136.621 23.864 136.621 25.64V26.936H122.257C122.329 28.832 122.941 30.32 124.093 31.4C125.245 32.456 126.685 32.984 128.413 32.984C129.925 32.984 131.089 32.636 131.905 31.94C132.721 31.244 133.345 30.416 133.777 29.456L136.225 30.644C135.865 31.388 135.361 32.132 134.713 32.876C134.089 33.62 133.261 34.244 132.229 34.748C131.221 35.252 129.925 35.504 128.341 35.504ZM122.293 24.596H133.741C133.645 22.964 133.081 21.692 132.049 20.78C131.041 19.868 129.745 19.412 128.161 19.412C126.553 19.412 125.233 19.868 124.201 20.78C123.169 21.692 122.533 22.964 122.293 24.596ZM141.582 35V17.396H144.354V19.556H144.858C145.17 18.788 145.65 18.224 146.298 17.864C146.946 17.504 147.798 17.324 148.854 17.324H150.942V19.916H148.674C147.402 19.916 146.37 20.276 145.578 20.996C144.81 21.692 144.426 22.784 144.426 24.272V35H141.582ZM163.102 35V32.3H166.63V12.5H163.102V9.8H175.738C177.202 9.8 178.498 10.064 179.626 10.592C180.778 11.12 181.666 11.864 182.29 12.824C182.938 13.76 183.262 14.864 183.262 16.136V16.424C183.262 17.6 183.034 18.572 182.578 19.34C182.122 20.084 181.582 20.672 180.958 21.104C180.334 21.512 179.722 21.812 179.122 22.004V22.508C179.722 22.652 180.346 22.94 180.994 23.372C181.642 23.78 182.182 24.368 182.614 25.136C183.07 25.904 183.298 26.876 183.298 28.052V28.412C183.298 29.78 182.962 30.968 182.29 31.976C181.642 32.96 180.742 33.716 179.59 34.244C178.462 34.748 177.166 35 175.702 35H163.102ZM169.654 32.264H175.378C176.962 32.264 178.174 31.892 179.014 31.148C179.854 30.404 180.274 29.396 180.274 28.124V27.8C180.274 26.528 179.854 25.52 179.014 24.776C178.174 24.032 176.962 23.66 175.378 23.66H169.654V32.264ZM169.654 20.924H175.486C176.926 20.924 178.078 20.564 178.942 19.844C179.806 19.1 180.238 18.128 180.238 16.928V16.568C180.238 15.344 179.806 14.372 178.942 13.652C178.102 12.908 176.95 12.536 175.486 12.536H169.654V20.924ZM188.199 35V17.396H190.971V19.556H191.475C191.787 18.788 192.267 18.224 192.915 17.864C193.563 17.504 194.415 17.324 195.471 17.324H197.559V19.916H195.291C194.019 19.916 192.987 20.276 192.195 20.996C191.427 21.692 191.043 22.784 191.043 24.272V35H188.199ZM206.572 35.504C205.348 35.504 204.232 35.288 203.224 34.856C202.216 34.424 201.424 33.8 200.848 32.984C200.272 32.168 199.984 31.172 199.984 29.996C199.984 28.796 200.272 27.812 200.848 27.044C201.424 26.252 202.216 25.664 203.224 25.28C204.232 24.872 205.36 24.668 206.608 24.668H212.548V23.372C212.548 22.124 212.176 21.14 211.432 20.42C210.712 19.7 209.632 19.34 208.192 19.34C206.776 19.34 205.672 19.688 204.88 20.384C204.088 21.056 203.548 21.968 203.26 23.12L200.596 22.256C200.884 21.272 201.34 20.384 201.964 19.592C202.588 18.776 203.416 18.128 204.448 17.648C205.504 17.144 206.764 16.892 208.228 16.892C210.484 16.892 212.236 17.48 213.484 18.656C214.732 19.808 215.356 21.44 215.356 23.552V31.508C215.356 32.228 215.692 32.588 216.364 32.588H217.984V35H215.5C214.708 35 214.072 34.784 213.592 34.352C213.112 33.896 212.872 33.296 212.872 32.552V32.372H212.44C212.176 32.828 211.816 33.308 211.36 33.812C210.928 34.292 210.328 34.688 209.56 35C208.792 35.336 207.796 35.504 206.572 35.504ZM206.896 33.056C208.576 33.056 209.932 32.564 210.964 31.58C212.02 30.572 212.548 29.168 212.548 27.368V26.972H206.716C205.588 26.972 204.652 27.224 203.908 27.728C203.188 28.208 202.828 28.94 202.828 29.924C202.828 30.908 203.2 31.676 203.944 32.228C204.712 32.78 205.696 33.056 206.896 33.056ZM221.879 35V17.396H224.723V35H221.879ZM223.319 14.66C222.695 14.66 222.167 14.456 221.735 14.048C221.327 13.64 221.123 13.124 221.123 12.5C221.123 11.852 221.327 11.324 221.735 10.916C222.167 10.508 222.695 10.304 223.319 10.304C223.943 10.304 224.459 10.508 224.867 10.916C225.275 11.324 225.479 11.852 225.479 12.5C225.479 13.124 225.275 13.64 224.867 14.048C224.459 14.456 223.943 14.66 223.319 14.66ZM230.703 35V17.396H233.475V20.384H233.979C234.363 19.544 235.011 18.788 235.923 18.116C236.859 17.42 238.227 17.072 240.027 17.072C241.347 17.072 242.523 17.348 243.555 17.9C244.611 18.452 245.451 19.268 246.075 20.348C246.699 21.428 247.011 22.76 247.011 24.344V35H244.167V24.56C244.167 22.808 243.723 21.536 242.835 20.744C241.971 19.952 240.795 19.556 239.307 19.556C237.603 19.556 236.211 20.108 235.131 21.212C234.075 22.316 233.547 23.96 233.547 26.144V35H230.703Z"/>
</mask>
<path d="M61.268 35.504C59.444 35.504 57.812 35.18 56.372 34.532C54.932 33.884 53.792 32.912 52.952 31.616C52.136 30.296 51.728 28.652 51.728 26.684V25.928H54.716V26.684C54.716 28.772 55.328 30.332 56.552 31.364C57.776 32.372 59.348 32.876 61.268 32.876C63.236 32.876 64.736 32.432 65.768 31.544C66.8 30.656 67.316 29.54 67.316 28.196C67.316 27.26 67.076 26.516 66.596 25.964C66.14 25.412 65.492 24.968 64.652 24.632C63.812 24.272 62.828 23.96 61.7 23.696L59.828 23.228C58.364 22.844 57.068 22.376 55.94 21.824C54.812 21.272 53.924 20.552 53.276 19.664C52.652 18.752 52.34 17.588 52.34 16.172C52.34 14.756 52.688 13.532 53.384 12.5C54.104 11.468 55.1 10.676 56.372 10.124C57.668 9.572 59.156 9.296 60.836 9.296C62.54 9.296 64.064 9.596 65.408 10.196C66.776 10.772 67.844 11.636 68.612 12.788C69.404 13.916 69.8 15.344 69.8 17.072V18.584H66.812V17.072C66.812 15.848 66.548 14.864 66.02 14.12C65.516 13.376 64.808 12.824 63.896 12.464C63.008 12.104 61.988 11.924 60.836 11.924C59.18 11.924 57.848 12.296 56.84 13.04C55.832 13.76 55.328 14.792 55.328 16.136C55.328 17.024 55.544 17.744 55.976 18.296C56.408 18.848 57.02 19.304 57.812 19.664C58.604 20 59.552 20.3 60.656 20.564L62.528 21.032C63.992 21.344 65.3 21.776 66.452 22.328C67.628 22.856 68.564 23.588 69.26 24.524C69.956 25.436 70.304 26.636 70.304 28.124C70.304 29.612 69.932 30.908 69.188 32.012C68.444 33.116 67.388 33.98 66.02 34.604C64.676 35.204 63.092 35.504 61.268 35.504ZM81.7981 35.324C80.5261 35.324 79.3501 35.048 78.2701 34.496C77.2141 33.944 76.3741 33.128 75.7501 32.048C75.1501 30.944 74.8501 29.612 74.8501 28.052V17.396H77.6941V27.836C77.6941 29.588 78.1261 30.86 78.9901 31.652C79.8781 32.444 81.0661 32.84 82.5541 32.84C84.2341 32.84 85.6141 32.288 86.6941 31.184C87.7741 30.08 88.3141 28.436 88.3141 26.252V17.396H91.1581V35H88.3861V32.012H87.8821C87.4981 32.852 86.8381 33.62 85.9021 34.316C84.9661 34.988 83.5981 35.324 81.7981 35.324ZM97.1091 42.2V17.396H99.8811V20.312H100.385C100.841 19.424 101.573 18.632 102.581 17.936C103.613 17.24 105.041 16.892 106.865 16.892C108.377 16.892 109.757 17.264 111.005 18.008C112.277 18.728 113.285 19.76 114.029 21.104C114.797 22.448 115.181 24.068 115.181 25.964V26.432C115.181 28.304 114.809 29.924 114.065 31.292C113.321 32.66 112.313 33.704 111.041 34.424C109.793 35.144 108.401 35.504 106.865 35.504C105.641 35.504 104.597 35.336 103.733 35C102.893 34.688 102.209 34.28 101.681 33.776C101.153 33.272 100.745 32.756 100.457 32.228H99.9531V42.2H97.1091ZM106.109 32.984C107.933 32.984 109.409 32.408 110.537 31.256C111.689 30.08 112.265 28.448 112.265 26.36V26.036C112.265 23.948 111.689 22.328 110.537 21.176C109.409 20 107.933 19.412 106.109 19.412C104.309 19.412 102.821 20 101.645 21.176C100.493 22.328 99.9171 23.948 99.9171 26.036V26.36C99.9171 28.448 100.493 30.08 101.645 31.256C102.821 32.408 104.309 32.984 106.109 32.984ZM128.341 35.504C126.565 35.504 125.005 35.132 123.661 34.388C122.317 33.62 121.273 32.552 120.529 31.184C119.785 29.816 119.413 28.232 119.413 26.432V26C119.413 24.176 119.785 22.58 120.529 21.212C121.273 19.844 122.305 18.788 123.625 18.044C124.945 17.276 126.457 16.892 128.161 16.892C129.817 16.892 131.281 17.252 132.553 17.972C133.825 18.668 134.821 19.676 135.541 20.996C136.261 22.316 136.621 23.864 136.621 25.64V26.936H122.257C122.329 28.832 122.941 30.32 124.093 31.4C125.245 32.456 126.685 32.984 128.413 32.984C129.925 32.984 131.089 32.636 131.905 31.94C132.721 31.244 133.345 30.416 133.777 29.456L136.225 30.644C135.865 31.388 135.361 32.132 134.713 32.876C134.089 33.62 133.261 34.244 132.229 34.748C131.221 35.252 129.925 35.504 128.341 35.504ZM122.293 24.596H133.741C133.645 22.964 133.081 21.692 132.049 20.78C131.041 19.868 129.745 19.412 128.161 19.412C126.553 19.412 125.233 19.868 124.201 20.78C123.169 21.692 122.533 22.964 122.293 24.596ZM141.582 35V17.396H144.354V19.556H144.858C145.17 18.788 145.65 18.224 146.298 17.864C146.946 17.504 147.798 17.324 148.854 17.324H150.942V19.916H148.674C147.402 19.916 146.37 20.276 145.578 20.996C144.81 21.692 144.426 22.784 144.426 24.272V35H141.582ZM163.102 35V32.3H166.63V12.5H163.102V9.8H175.738C177.202 9.8 178.498 10.064 179.626 10.592C180.778 11.12 181.666 11.864 182.29 12.824C182.938 13.76 183.262 14.864 183.262 16.136V16.424C183.262 17.6 183.034 18.572 182.578 19.34C182.122 20.084 181.582 20.672 180.958 21.104C180.334 21.512 179.722 21.812 179.122 22.004V22.508C179.722 22.652 180.346 22.94 180.994 23.372C181.642 23.78 182.182 24.368 182.614 25.136C183.07 25.904 183.298 26.876 183.298 28.052V28.412C183.298 29.78 182.962 30.968 182.29 31.976C181.642 32.96 180.742 33.716 179.59 34.244C178.462 34.748 177.166 35 175.702 35H163.102ZM169.654 32.264H175.378C176.962 32.264 178.174 31.892 179.014 31.148C179.854 30.404 180.274 29.396 180.274 28.124V27.8C180.274 26.528 179.854 25.52 179.014 24.776C178.174 24.032 176.962 23.66 175.378 23.66H169.654V32.264ZM169.654 20.924H175.486C176.926 20.924 178.078 20.564 178.942 19.844C179.806 19.1 180.238 18.128 180.238 16.928V16.568C180.238 15.344 179.806 14.372 178.942 13.652C178.102 12.908 176.95 12.536 175.486 12.536H169.654V20.924ZM188.199 35V17.396H190.971V19.556H191.475C191.787 18.788 192.267 18.224 192.915 17.864C193.563 17.504 194.415 17.324 195.471 17.324H197.559V19.916H195.291C194.019 19.916 192.987 20.276 192.195 20.996C191.427 21.692 191.043 22.784 191.043 24.272V35H188.199ZM206.572 35.504C205.348 35.504 204.232 35.288 203.224 34.856C202.216 34.424 201.424 33.8 200.848 32.984C200.272 32.168 199.984 31.172 199.984 29.996C199.984 28.796 200.272 27.812 200.848 27.044C201.424 26.252 202.216 25.664 203.224 25.28C204.232 24.872 205.36 24.668 206.608 24.668H212.548V23.372C212.548 22.124 212.176 21.14 211.432 20.42C210.712 19.7 209.632 19.34 208.192 19.34C206.776 19.34 205.672 19.688 204.88 20.384C204.088 21.056 203.548 21.968 203.26 23.12L200.596 22.256C200.884 21.272 201.34 20.384 201.964 19.592C202.588 18.776 203.416 18.128 204.448 17.648C205.504 17.144 206.764 16.892 208.228 16.892C210.484 16.892 212.236 17.48 213.484 18.656C214.732 19.808 215.356 21.44 215.356 23.552V31.508C215.356 32.228 215.692 32.588 216.364 32.588H217.984V35H215.5C214.708 35 214.072 34.784 213.592 34.352C213.112 33.896 212.872 33.296 212.872 32.552V32.372H212.44C212.176 32.828 211.816 33.308 211.36 33.812C210.928 34.292 210.328 34.688 209.56 35C208.792 35.336 207.796 35.504 206.572 35.504ZM206.896 33.056C208.576 33.056 209.932 32.564 210.964 31.58C212.02 30.572 212.548 29.168 212.548 27.368V26.972H206.716C205.588 26.972 204.652 27.224 203.908 27.728C203.188 28.208 202.828 28.94 202.828 29.924C202.828 30.908 203.2 31.676 203.944 32.228C204.712 32.78 205.696 33.056 206.896 33.056ZM221.879 35V17.396H224.723V35H221.879ZM223.319 14.66C222.695 14.66 222.167 14.456 221.735 14.048C221.327 13.64 221.123 13.124 221.123 12.5C221.123 11.852 221.327 11.324 221.735 10.916C222.167 10.508 222.695 10.304 223.319 10.304C223.943 10.304 224.459 10.508 224.867 10.916C225.275 11.324 225.479 11.852 225.479 12.5C225.479 13.124 225.275 13.64 224.867 14.048C224.459 14.456 223.943 14.66 223.319 14.66ZM230.703 35V17.396H233.475V20.384H233.979C234.363 19.544 235.011 18.788 235.923 18.116C236.859 17.42 238.227 17.072 240.027 17.072C241.347 17.072 242.523 17.348 243.555 17.9C244.611 18.452 245.451 19.268 246.075 20.348C246.699 21.428 247.011 22.76 247.011 24.344V35H244.167V24.56C244.167 22.808 243.723 21.536 242.835 20.744C241.971 19.952 240.795 19.556 239.307 19.556C237.603 19.556 236.211 20.108 235.131 21.212C234.075 22.316 233.547 23.96 233.547 26.144V35H230.703Z" fill="url(#paint1_linear_404_676)"/>
<path d="M56.372 34.532L55.9616 35.4439L55.9616 35.4439L56.372 34.532ZM52.952 31.616L52.1014 32.1418L52.107 32.1509L52.1128 32.1599L52.952 31.616ZM51.728 25.928V24.928H50.728V25.928H51.728ZM54.716 25.928H55.716V24.928H54.716V25.928ZM56.552 31.364L55.9074 32.1286L55.9163 32.1359L56.552 31.364ZM65.768 31.544L66.4202 32.302L66.4202 32.302L65.768 31.544ZM66.596 25.964L65.825 26.6009L65.8331 26.6106L65.8414 26.6202L66.596 25.964ZM64.652 24.632L64.2581 25.5511L64.2693 25.5559L64.2806 25.5605L64.652 24.632ZM61.7 23.696L61.4575 24.6661L61.4648 24.668L61.4721 24.6697L61.7 23.696ZM59.828 23.228L59.5743 24.1953L59.5855 24.1981L59.828 23.228ZM55.94 21.824L55.5004 22.7222L55.5004 22.7222L55.94 21.824ZM53.276 19.664L52.4507 20.2287L52.4593 20.2412L52.4682 20.2535L53.276 19.664ZM53.384 12.5L52.5639 11.9278L52.5593 11.9343L52.5549 11.9409L53.384 12.5ZM56.372 10.124L55.9801 9.20395L55.9739 9.20665L56.372 10.124ZM65.408 10.196L65.0004 11.1091L65.0101 11.1135L65.0199 11.1176L65.408 10.196ZM68.612 12.788L67.78 13.3427L67.7866 13.3527L67.7936 13.3626L68.612 12.788ZM69.8 18.584V19.584H70.8V18.584H69.8ZM66.812 18.584H65.812V19.584H66.812V18.584ZM66.02 14.12L65.1921 14.6808L65.1982 14.6899L65.2045 14.6987L66.02 14.12ZM63.896 12.464L63.5203 13.3908L63.5288 13.3942L63.896 12.464ZM56.84 13.04L57.4212 13.8537L57.4276 13.8492L57.4339 13.8446L56.84 13.04ZM57.812 19.664L57.3982 20.5744L57.4098 20.5796L57.4215 20.5846L57.812 19.664ZM60.656 20.564L60.8985 19.5938L60.8886 19.5914L60.656 20.564ZM62.528 21.032L62.2855 22.0021L62.3024 22.0064L62.3196 22.01L62.528 21.032ZM66.452 22.328L66.0199 23.2298L66.0311 23.2352L66.0424 23.2403L66.452 22.328ZM69.26 24.524L68.4575 25.1207L68.465 25.1307L69.26 24.524ZM69.188 32.012L70.0173 32.5709L70.0173 32.5709L69.188 32.012ZM66.02 34.604L66.4277 35.5172L66.435 35.5138L66.02 34.604ZM61.268 34.504C59.5637 34.504 58.0748 34.2017 56.7824 33.6201L55.9616 35.4439C57.5492 36.1583 59.3243 36.504 61.268 36.504V34.504ZM56.7824 33.6201C55.5135 33.0491 54.5241 32.203 53.7912 31.0721L52.1128 32.1599C53.0599 33.621 54.3505 34.7189 55.9616 35.4439L56.7824 33.6201ZM53.8026 31.0902C53.1073 29.9654 52.728 28.5155 52.728 26.684H50.728C50.728 28.7885 51.1647 30.6266 52.1014 32.1418L53.8026 31.0902ZM52.728 26.684V25.928H50.728V26.684H52.728ZM51.728 26.928H54.716V24.928H51.728V26.928ZM53.716 25.928V26.684H55.716V25.928H53.716ZM53.716 26.684C53.716 28.9708 54.3937 30.8523 55.9074 32.1285L57.1966 30.5995C56.2623 29.8117 55.716 28.5732 55.716 26.684H53.716ZM55.9163 32.1359C57.3549 33.3207 59.1668 33.876 61.268 33.876V31.876C59.5292 31.876 58.1971 31.4233 57.1877 30.5921L55.9163 32.1359ZM61.268 33.876C63.3707 33.876 65.1407 33.403 66.4202 32.302L65.1158 30.786C64.3313 31.461 63.1013 31.876 61.268 31.876V33.876ZM66.4202 32.302C67.6697 31.2269 68.316 29.8356 68.316 28.196H66.316C66.316 29.2444 65.9303 30.0851 65.1158 30.786L66.4202 32.302ZM68.316 28.196C68.316 27.0881 68.029 26.088 67.3506 25.3078L65.8414 26.6202C66.123 26.944 66.316 27.4319 66.316 28.196H68.316ZM67.367 25.3271C66.7798 24.6163 65.9787 24.0857 65.0234 23.7035L64.2806 25.5605C65.0053 25.8503 65.5002 26.2077 65.825 26.6009L67.367 25.3271ZM65.0459 23.7129C64.1403 23.3247 63.0984 22.9963 61.9279 22.7223L61.4721 24.6697C62.5576 24.9237 63.4837 25.2193 64.2581 25.5511L65.0459 23.7129ZM61.9425 22.7259L60.0705 22.2579L59.5855 24.1981L61.4575 24.6661L61.9425 22.7259ZM60.0817 22.2607C58.6692 21.8902 57.4374 21.4435 56.3796 20.9258L55.5004 22.7222C56.6986 23.3085 58.0588 23.7978 59.5743 24.1953L60.0817 22.2607ZM56.3796 20.9258C55.3766 20.435 54.6231 19.8136 54.0838 19.0745L52.4682 20.2535C53.2249 21.2904 54.2474 22.109 55.5004 22.7222L56.3796 20.9258ZM54.1013 19.0993C53.6193 18.3949 53.34 17.443 53.34 16.172H51.34C51.34 17.733 51.6847 19.1091 52.4507 20.2287L54.1013 19.0993ZM53.34 16.172C53.34 14.9269 53.6433 13.9039 54.2131 13.0591L52.5549 11.9409C51.7327 13.1601 51.34 14.5851 51.34 16.172H53.34ZM54.2041 13.0722C54.8075 12.2073 55.6501 11.5274 56.7701 11.0413L55.9739 9.20665C54.5499 9.82463 53.4005 10.7287 52.5639 11.9278L54.2041 13.0722ZM56.7639 11.044C57.9145 10.5539 59.2652 10.296 60.836 10.296V8.296C59.0468 8.296 57.4215 8.59006 55.9801 9.20397L56.7639 11.044ZM60.836 10.296C62.4215 10.296 63.8033 10.5747 65.0004 11.1091L65.8157 9.28286C64.3247 8.61726 62.6585 8.296 60.836 8.296V10.296ZM65.0199 11.1176C66.2208 11.6233 67.1287 12.3658 67.78 13.3427L69.4441 12.2333C68.5593 10.9062 67.3312 9.92073 65.7961 9.27436L65.0199 11.1176ZM67.7936 13.3626C68.4404 14.2839 68.8 15.4971 68.8 17.072H70.8C70.8 15.1909 70.3676 13.5481 69.4304 12.2134L67.7936 13.3626ZM68.8 17.072V18.584H70.8V17.072H68.8ZM69.8 17.584H66.812V19.584H69.8V17.584ZM67.812 18.584V17.072H65.812V18.584H67.812ZM67.812 17.072C67.812 15.7104 67.5184 14.5035 66.8355 13.5413L65.2045 14.6987C65.5776 15.2245 65.812 15.9856 65.812 17.072H67.812ZM66.8479 13.5591C66.2207 12.6333 65.3446 11.9607 64.2632 11.5338L63.5288 13.3942C64.2714 13.6873 64.8113 14.1187 65.1921 14.6808L66.8479 13.5591ZM64.2717 11.5373C63.2428 11.1202 62.0913 10.924 60.836 10.924V12.924C61.8847 12.924 62.7732 13.0878 63.5203 13.3907L64.2717 11.5373ZM60.836 10.924C59.0346 10.924 57.474 11.3291 56.2461 12.2354L57.4339 13.8446C58.222 13.2629 59.3254 12.924 60.836 12.924V10.924ZM56.2588 12.2263C54.9629 13.1519 54.328 14.5011 54.328 16.136H56.328C56.328 15.0829 56.7011 14.3681 57.4212 13.8537L56.2588 12.2263ZM54.328 16.136C54.328 17.1868 54.5856 18.142 55.1885 18.9123L56.7635 17.6797C56.5024 17.346 56.328 16.8612 56.328 16.136H54.328ZM55.1885 18.9123C55.7407 19.6179 56.4945 20.1636 57.3982 20.5744L58.2258 18.7536C57.5455 18.4444 57.0753 18.0781 56.7635 17.6797L55.1885 18.9123ZM57.4215 20.5846C58.2778 20.9479 59.2814 21.2635 60.4234 21.5366L60.8886 19.5914C59.8226 19.3365 58.9302 19.0521 58.2026 18.7434L57.4215 20.5846ZM60.4135 21.5341L62.2855 22.0021L62.7705 20.0619L60.8985 19.5939L60.4135 21.5341ZM62.3196 22.01C63.7191 22.3083 64.9501 22.7172 66.0199 23.2298L66.8841 21.4262C65.6499 20.8348 64.2649 20.3797 62.7364 20.054L62.3196 22.01ZM66.0424 23.2403C67.0794 23.7059 67.8738 24.3357 68.4575 25.1207L70.0625 23.9273C69.2542 22.8403 68.1766 22.0061 66.8616 21.4157L66.0424 23.2403ZM68.465 25.1307C68.9932 25.8227 69.304 26.7898 69.304 28.124H71.304C71.304 26.4822 70.9188 25.0493 70.055 23.9173L68.465 25.1307ZM69.304 28.124C69.304 29.4372 68.9786 30.5334 68.3587 31.4531L70.0173 32.5709C70.8854 31.2826 71.304 29.7868 71.304 28.124H69.304ZM68.3587 31.4531C67.7307 32.3851 66.8274 33.1366 65.605 33.6942L66.435 35.5138C67.9486 34.8234 69.1573 33.8469 70.0173 32.5709L68.3587 31.4531ZM65.6123 33.6909C64.4234 34.2216 62.9842 34.504 61.268 34.504V36.504C63.1998 36.504 64.9286 36.1864 66.4277 35.5171L65.6123 33.6909ZM78.2701 34.496L77.8069 35.3823L77.815 35.3864L78.2701 34.496ZM75.7501 32.048L74.8715 32.5255L74.8777 32.537L74.8843 32.5483L75.7501 32.048ZM74.8501 17.396V16.396H73.8501V17.396H74.8501ZM77.6941 17.396H78.6941V16.396H77.6941V17.396ZM78.9901 31.652L78.3143 32.3892L78.3245 32.3983L78.9901 31.652ZM86.6941 31.184L85.9793 30.4847L85.9793 30.4847L86.6941 31.184ZM88.3141 17.396V16.396H87.3141V17.396H88.3141ZM91.1581 17.396H92.1581V16.396H91.1581V17.396ZM91.1581 35V36H92.1581V35H91.1581ZM88.3861 35H87.3861V36H88.3861V35ZM88.3861 32.012H89.3861V31.012H88.3861V32.012ZM87.8821 32.012V31.012H87.2397L86.9727 31.5962L87.8821 32.012ZM85.9021 34.316L86.4853 35.1283L86.4921 35.1234L86.4988 35.1185L85.9021 34.316ZM81.7981 34.324C80.6764 34.324 79.6574 34.082 78.7252 33.6056L77.815 35.3864C79.0428 36.014 80.3758 36.324 81.7981 36.324V34.324ZM78.7334 33.6098C77.8535 33.1499 77.1498 32.4716 76.616 31.5477L74.8843 32.5483C75.5985 33.7844 76.5747 34.7381 77.8069 35.3822L78.7334 33.6098ZM76.6287 31.5705C76.1254 30.6444 75.8501 29.4849 75.8501 28.052H73.8501C73.8501 29.7391 74.1748 31.2436 74.8715 32.5255L76.6287 31.5705ZM75.8501 28.052V17.396H73.8501V28.052H75.8501ZM74.8501 18.396H77.6941V16.396H74.8501V18.396ZM76.6941 17.396V27.836H78.6941V17.396H76.6941ZM76.6941 27.836C76.6941 29.7292 77.1597 31.3307 78.3144 32.3892L79.6658 30.9148C79.0926 30.3893 78.6941 29.4468 78.6941 27.836H76.6941ZM78.3245 32.3983C79.4384 33.3917 80.8845 33.84 82.5541 33.84V31.84C81.2478 31.84 80.3179 31.4963 79.6557 30.9057L78.3245 32.3983ZM82.5541 33.84C84.477 33.84 86.1233 33.1975 87.409 31.8833L85.9793 30.4847C85.1049 31.3785 83.9912 31.84 82.5541 31.84V33.84ZM87.409 31.8833C88.736 30.5268 89.3141 28.5883 89.3141 26.252H87.3141C87.3141 28.2837 86.8122 29.6332 85.9793 30.4847L87.409 31.8833ZM89.3141 26.252V17.396H87.3141V26.252H89.3141ZM88.3141 18.396H91.1581V16.396H88.3141V18.396ZM90.1581 17.396V35H92.1581V17.396H90.1581ZM91.1581 34H88.3861V36H91.1581V34ZM89.3861 35V32.012H87.3861V35H89.3861ZM88.3861 31.012H87.8821V33.012H88.3861V31.012ZM86.9727 31.5962C86.6747 32.2479 86.1411 32.8921 85.3054 33.5135L86.4988 35.1185C87.5351 34.3479 88.3215 33.4561 88.7916 32.4278L86.9727 31.5962ZM85.3189 33.5037C84.6243 34.0024 83.4983 34.324 81.7981 34.324V36.324C83.6979 36.324 85.308 35.9736 86.4853 35.1283L85.3189 33.5037ZM97.1091 42.2H96.1091V43.2H97.1091V42.2ZM97.1091 17.396V16.396H96.1091V17.396H97.1091ZM99.8811 17.396H100.881V16.396H99.8811V17.396ZM99.8811 20.312H98.8811V21.312H99.8811V20.312ZM100.385 20.312V21.312H100.996L101.275 20.7688L100.385 20.312ZM102.581 17.936L102.022 17.1069L102.013 17.1131L102.581 17.936ZM111.005 18.008L110.493 18.8669L110.503 18.8727L110.512 18.8783L111.005 18.008ZM114.029 21.104L113.154 21.5884L113.161 21.6001L114.029 21.104ZM111.041 34.424L110.548 33.5537L110.541 33.5578L111.041 34.424ZM103.733 35L104.096 34.068L104.088 34.0652L104.081 34.0626L103.733 35ZM100.457 32.228L101.335 31.7491L101.051 31.228H100.457V32.228ZM99.9531 32.228V31.228H98.9531V32.228H99.9531ZM99.9531 42.2V43.2H100.953V42.2H99.9531ZM110.537 31.256L109.823 30.5562L109.823 30.5564L110.537 31.256ZM110.537 21.176L109.815 21.8682L109.823 21.8757L109.83 21.8831L110.537 21.176ZM101.645 21.176L102.352 21.8831L102.352 21.8831L101.645 21.176ZM101.645 31.256L100.931 31.9558L100.938 31.9631L100.945 31.9704L101.645 31.256ZM98.1091 42.2V17.396H96.1091V42.2H98.1091ZM97.1091 18.396H99.8811V16.396H97.1091V18.396ZM98.8811 17.396V20.312H100.881V17.396H98.8811ZM99.8811 21.312H100.385V19.312H99.8811V21.312ZM101.275 20.7688C101.64 20.0572 102.247 19.3822 103.149 18.7589L102.013 17.1131C100.9 17.8818 100.042 18.7908 99.4955 19.8552L101.275 20.7688ZM103.14 18.7651C103.947 18.2212 105.152 17.892 106.865 17.892V15.892C104.93 15.892 103.279 16.2588 102.022 17.1069L103.14 18.7651ZM106.865 17.892C108.204 17.892 109.406 18.2191 110.493 18.8669L111.517 17.1491C110.108 16.3089 108.55 15.892 106.865 15.892V17.892ZM110.512 18.8783C111.616 19.5026 112.495 20.3972 113.154 21.5883L114.904 20.6197C114.075 19.1228 112.939 17.9534 111.498 17.1377L110.512 18.8783ZM113.161 21.6001C113.825 22.7625 114.181 24.2031 114.181 25.964H116.181C116.181 23.9329 115.769 22.1335 114.897 20.6079L113.161 21.6001ZM114.181 25.964V26.432H116.181V25.964H114.181ZM114.181 26.432C114.181 28.1707 113.836 29.6198 113.187 30.8142L114.944 31.7698C115.782 30.2282 116.181 28.4373 116.181 26.432H114.181ZM113.187 30.8142C112.526 32.0291 111.647 32.932 110.548 33.5537L111.534 35.2943C112.979 34.476 114.116 33.2909 114.944 31.7698L113.187 30.8142ZM110.541 33.5578C109.455 34.1843 108.238 34.504 106.865 34.504V36.504C108.565 36.504 110.131 36.1037 111.541 35.2902L110.541 33.5578ZM106.865 34.504C105.728 34.504 104.814 34.3472 104.096 34.068L103.371 35.932C104.381 36.3248 105.555 36.504 106.865 36.504V34.504ZM104.081 34.0626C103.341 33.7874 102.782 33.444 102.372 33.0526L100.991 34.4994C101.637 35.116 102.446 35.5886 103.385 35.9374L104.081 34.0626ZM102.372 33.0526C101.903 32.6053 101.564 32.1695 101.335 31.7491L99.5792 32.7069C99.9259 33.3425 100.403 33.9387 100.991 34.4994L102.372 33.0526ZM100.457 31.228H99.9531V33.228H100.457V31.228ZM98.9531 32.228V42.2H100.953V32.228H98.9531ZM99.9531 41.2H97.1091V43.2H99.9531V41.2ZM106.109 33.984C108.163 33.984 109.91 33.3257 111.252 31.9556L109.823 30.5564C108.908 31.4903 107.703 31.984 106.109 31.984V33.984ZM111.251 31.9558C112.632 30.5462 113.265 28.6361 113.265 26.36H111.265C111.265 28.2599 110.746 29.6138 109.823 30.5562L111.251 31.9558ZM113.265 26.36V26.036H111.265V26.36H113.265ZM113.265 26.036C113.265 23.761 112.633 21.8573 111.244 20.4689L109.83 21.8831C110.746 22.7987 111.265 24.135 111.265 26.036H113.265ZM111.259 20.4838C109.919 19.0868 108.17 18.412 106.109 18.412V20.412C107.696 20.412 108.899 20.9132 109.815 21.8682L111.259 20.4838ZM106.109 18.412C104.068 18.412 102.318 19.089 100.938 20.4689L102.352 21.8831C103.324 20.911 104.55 20.412 106.109 20.412V18.412ZM100.938 20.4689C99.5496 21.8573 98.9171 23.761 98.9171 26.036H100.917C100.917 24.135 101.437 22.7987 102.352 21.8831L100.938 20.4689ZM98.9171 26.036V26.36H100.917V26.036H98.9171ZM98.9171 26.36C98.9171 28.6361 99.5499 30.5462 100.931 31.9558L102.359 30.5562C101.436 29.6138 100.917 28.2599 100.917 26.36H98.9171ZM100.945 31.9704C102.327 33.3234 104.074 33.984 106.109 33.984V31.984C104.544 31.984 103.316 31.4926 102.345 30.5416L100.945 31.9704ZM123.661 34.388L123.165 35.2563L123.177 35.2629L123.661 34.388ZM120.529 31.184L121.408 30.7062L120.529 31.184ZM120.529 21.212L119.651 20.7342L119.651 20.7342L120.529 21.212ZM123.625 18.044L124.116 18.9152L124.128 18.9083L123.625 18.044ZM132.553 17.972L132.06 18.8423L132.067 18.8458L132.073 18.8493L132.553 17.972ZM135.541 20.996L136.419 20.5171L136.419 20.5171L135.541 20.996ZM136.621 26.936V27.936H137.621V26.936H136.621ZM122.257 26.936V25.936H121.218L121.258 26.9739L122.257 26.936ZM124.093 31.4L123.409 32.1296L123.417 32.1372L124.093 31.4ZM131.905 31.94L132.554 32.7008L132.554 32.7008L131.905 31.94ZM133.777 29.456L134.214 28.5563L133.288 28.1069L132.865 29.0456L133.777 29.456ZM136.225 30.644L137.125 31.0796L137.56 30.1804L136.662 29.7443L136.225 30.644ZM134.713 32.876L133.959 32.2192L133.953 32.2262L133.947 32.2334L134.713 32.876ZM132.229 34.748L131.79 33.8494L131.782 33.8536L132.229 34.748ZM122.293 24.596L121.304 24.4505L121.135 25.596H122.293V24.596ZM133.741 24.596V25.596H134.802L134.739 24.5373L133.741 24.596ZM132.049 20.78L131.378 21.5216L131.387 21.5293L132.049 20.78ZM124.201 20.78L124.863 21.5293L124.863 21.5293L124.201 20.78ZM128.341 34.504C126.708 34.504 125.319 34.163 124.145 33.5131L123.177 35.2629C124.691 36.101 126.422 36.504 128.341 36.504V34.504ZM124.157 33.5198C122.975 32.8445 122.063 31.9121 121.408 30.7062L119.651 31.6618C120.483 33.1919 121.659 34.3955 123.165 35.2562L124.157 33.5198ZM121.408 30.7062C120.755 29.5063 120.413 28.0913 120.413 26.432H118.413C118.413 28.3727 118.815 30.1257 119.651 31.6618L121.408 30.7062ZM120.413 26.432V26H118.413V26.432H120.413ZM120.413 26C120.413 24.3142 120.756 22.8879 121.408 21.6898L119.651 20.7342C118.814 22.2721 118.413 24.0378 118.413 26H120.413ZM121.408 21.6898C122.064 20.4818 122.964 19.5643 124.116 18.9152L123.134 17.1728C121.646 18.0117 120.482 19.2062 119.651 20.7342L121.408 21.6898ZM124.128 18.9083C125.278 18.2392 126.613 17.892 128.161 17.892V15.892C126.301 15.892 124.612 16.3128 123.122 17.1797L124.128 18.9083ZM128.161 17.892C129.668 17.892 130.958 18.2181 132.06 18.8423L133.046 17.1017C131.604 16.2859 129.966 15.892 128.161 15.892V17.892ZM132.073 18.8493C133.171 19.4498 134.031 20.3165 134.663 21.4749L136.419 20.5171C135.611 19.0355 134.48 17.8862 133.033 17.0947L132.073 18.8493ZM134.663 21.4749C135.29 22.6234 135.621 24.001 135.621 25.64H137.621C137.621 23.727 137.232 22.0086 136.419 20.5171L134.663 21.4749ZM135.621 25.64V26.936H137.621V25.64H135.621ZM136.621 25.936H122.257V27.936H136.621V25.936ZM121.258 26.9739C121.338 29.0764 122.027 30.8341 123.409 32.1295L124.777 30.6705C123.855 29.8059 123.321 28.5876 123.256 26.8981L121.258 26.9739ZM123.417 32.1372C124.774 33.3806 126.464 33.984 128.413 33.984V31.984C126.907 31.984 125.716 31.5314 124.769 30.6628L123.417 32.1372ZM128.413 33.984C130.067 33.984 131.495 33.604 132.554 32.7008L131.256 31.1792C130.683 31.668 129.784 31.984 128.413 31.984V33.984ZM132.554 32.7008C133.48 31.9107 134.195 30.9638 134.689 29.8664L132.865 29.0456C132.495 29.8682 131.962 30.5772 131.256 31.1792L132.554 32.7008ZM133.34 30.3557L135.788 31.5437L136.662 29.7443L134.214 28.5563L133.34 30.3557ZM135.325 30.2084C135.01 30.8589 134.56 31.5296 133.959 32.2192L135.467 33.5328C136.163 32.7344 136.72 31.9171 137.125 31.0796L135.325 30.2084ZM133.947 32.2334C133.428 32.8523 132.719 33.3958 131.79 33.8494L132.668 35.6466C133.803 35.0922 134.75 34.3877 135.479 33.5186L133.947 32.2334ZM131.782 33.8536C130.957 34.2658 129.829 34.504 128.341 34.504V36.504C130.021 36.504 131.485 36.2382 132.676 35.6424L131.782 33.8536ZM122.293 25.596H133.741V23.596H122.293V25.596ZM134.739 24.5373C134.631 22.6929 133.98 21.1515 132.711 20.0307L131.387 21.5293C132.183 22.2325 132.659 23.235 132.743 24.6547L134.739 24.5373ZM132.72 20.0385C131.498 18.933 129.949 18.412 128.161 18.412V20.412C129.541 20.412 130.584 20.803 131.378 21.5215L132.72 20.0385ZM128.161 18.412C126.352 18.412 124.784 18.9306 123.539 20.0307L124.863 21.5293C125.682 20.8054 126.754 20.412 128.161 20.412V18.412ZM123.539 20.0307C122.297 21.1285 121.571 22.6332 121.304 24.4505L123.282 24.7415C123.495 23.2948 124.042 22.2555 124.863 21.5293L123.539 20.0307ZM141.582 35H140.582V36H141.582V35ZM141.582 17.396V16.396H140.582V17.396H141.582ZM144.354 17.396H145.354V16.396H144.354V17.396ZM144.354 19.556H143.354V20.556H144.354V19.556ZM144.858 19.556V20.556H145.531L145.784 19.9324L144.858 19.556ZM146.298 17.864L146.783 18.7382L146.783 18.7382L146.298 17.864ZM150.942 17.324H151.942V16.324H150.942V17.324ZM150.942 19.916V20.916H151.942V19.916H150.942ZM145.578 20.996L146.249 21.737L146.25 21.7359L145.578 20.996ZM144.426 35V36H145.426V35H144.426ZM142.582 35V17.396H140.582V35H142.582ZM141.582 18.396H144.354V16.396H141.582V18.396ZM143.354 17.396V19.556H145.354V17.396H143.354ZM144.354 20.556H144.858V18.556H144.354V20.556ZM145.784 19.9324C146.021 19.3492 146.358 18.9742 146.783 18.7382L145.812 16.9898C144.941 17.4738 144.318 18.2268 143.931 19.1796L145.784 19.9324ZM146.783 18.7382C147.233 18.4884 147.9 18.324 148.854 18.324V16.324C147.696 16.324 146.658 16.5196 145.812 16.9898L146.783 18.7382ZM148.854 18.324H150.942V16.324H148.854V18.324ZM149.942 17.324V19.916H151.942V17.324H149.942ZM150.942 18.916H148.674V20.916H150.942V18.916ZM148.674 18.916C147.203 18.916 145.915 19.3381 144.905 20.2561L146.25 21.7359C146.825 21.2139 147.601 20.916 148.674 20.916V18.916ZM144.906 20.255C143.851 21.2111 143.426 22.6273 143.426 24.272H145.426C145.426 22.9407 145.768 22.1729 146.249 21.737L144.906 20.255ZM143.426 24.272V35H145.426V24.272H143.426ZM144.426 34H141.582V36H144.426V34ZM163.102 35H162.102V36H163.102V35ZM163.102 32.3V31.3H162.102V32.3H163.102ZM166.63 32.3V33.3H167.63V32.3H166.63ZM166.63 12.5H167.63V11.5H166.63V12.5ZM163.102 12.5H162.102V13.5H163.102V12.5ZM163.102 9.8V8.8H162.102V9.8H163.102ZM179.626 10.592L179.202 11.4977L179.21 11.5011L179.626 10.592ZM182.29 12.824L181.452 13.369L181.46 13.3812L181.468 13.3932L182.29 12.824ZM182.578 19.34L183.431 19.8626L183.438 19.8505L182.578 19.34ZM180.958 21.104L181.505 21.941L181.516 21.9337L181.527 21.9262L180.958 21.104ZM179.122 22.004L178.817 21.0516L178.122 21.274V22.004H179.122ZM179.122 22.508H178.122V23.2964L178.889 23.4804L179.122 22.508ZM180.994 23.372L180.439 24.204L180.45 24.2113L180.461 24.2182L180.994 23.372ZM182.614 25.136L181.743 25.6263L181.748 25.6365L181.754 25.6465L182.614 25.136ZM182.29 31.976L181.458 31.4213L181.455 31.426L182.29 31.976ZM179.59 34.244L179.998 35.1571L180.007 35.1531L179.59 34.244ZM169.654 32.264H168.654V33.264H169.654V32.264ZM179.014 31.148L178.351 30.3994L178.351 30.3994L179.014 31.148ZM179.014 24.776L178.351 25.5246L178.351 25.5246L179.014 24.776ZM169.654 23.66V22.66H168.654V23.66H169.654ZM169.654 20.924H168.654V21.924H169.654V20.924ZM178.942 19.844L179.582 20.6122L179.589 20.607L179.595 20.6018L178.942 19.844ZM178.942 13.652L178.279 14.4006L178.29 14.4106L178.302 14.4202L178.942 13.652ZM169.654 12.536V11.536H168.654V12.536H169.654ZM164.102 35V32.3H162.102V35H164.102ZM163.102 33.3H166.63V31.3H163.102V33.3ZM167.63 32.3V12.5H165.63V32.3H167.63ZM166.63 11.5H163.102V13.5H166.63V11.5ZM164.102 12.5V9.8H162.102V12.5H164.102ZM163.102 10.8H175.738V8.8H163.102V10.8ZM175.738 10.8C177.081 10.8 178.228 11.0418 179.202 11.4977L180.05 9.68631C178.768 9.08622 177.323 8.8 175.738 8.8V10.8ZM179.21 11.5011C180.208 11.9588 180.942 12.5845 181.452 13.369L183.129 12.279C182.39 11.1435 181.348 10.2812 180.043 9.68293L179.21 11.5011ZM181.468 13.3932C181.987 14.1426 182.262 15.0426 182.262 16.136H184.262C184.262 14.6854 183.89 13.3774 183.112 12.2548L181.468 13.3932ZM182.262 16.136V16.424H184.262V16.136H182.262ZM182.262 16.424C182.262 17.4757 182.058 18.2575 181.718 18.8295L183.438 19.8505C184.01 18.8865 184.262 17.7243 184.262 16.424H182.262ZM181.726 18.8174C181.331 19.4606 180.883 19.9399 180.389 20.2818L181.527 21.9262C182.281 21.4041 182.913 20.7074 183.431 19.8626L181.726 18.8174ZM180.411 20.267C179.849 20.6346 179.318 20.8915 178.817 21.0516L179.427 22.9564C180.127 22.7325 180.82 22.3894 181.505 21.941L180.411 20.267ZM178.122 22.004V22.508H180.122V22.004H178.122ZM178.889 23.4804C179.349 23.5908 179.865 23.821 180.439 24.204L181.549 22.5399C180.827 22.059 180.096 21.7132 179.356 21.5356L178.889 23.4804ZM180.461 24.2182C180.949 24.525 181.38 24.9812 181.743 25.6263L183.486 24.6457C182.985 23.7548 182.336 23.035 181.527 22.5258L180.461 24.2182ZM181.754 25.6465C182.094 26.2185 182.298 27.0003 182.298 28.052H184.298C184.298 26.7517 184.046 25.5895 183.474 24.6255L181.754 25.6465ZM182.298 28.052V28.412H184.298V28.052H182.298ZM182.298 28.412C182.298 29.6089 182.007 30.5982 181.458 31.4213L183.122 32.5307C183.917 31.3378 184.298 29.9511 184.298 28.412H182.298ZM181.455 31.426C180.918 32.2416 180.169 32.8789 179.174 33.3349L180.007 35.1531C181.316 34.5531 182.366 33.6784 183.125 32.526L181.455 31.426ZM179.182 33.331C178.204 33.768 177.051 34 175.702 34V36C177.281 36 178.72 35.728 179.998 35.157L179.182 33.331ZM175.702 34H163.102V36H175.702V34ZM169.654 33.264H175.378V31.264H169.654V33.264ZM175.378 33.264C177.107 33.264 178.591 32.8584 179.677 31.8966L178.351 30.3994C177.757 30.9256 176.818 31.264 175.378 31.264V33.264ZM179.677 31.8966C180.761 30.9363 181.274 29.6398 181.274 28.124H179.274C179.274 29.1522 178.947 29.8717 178.351 30.3994L179.677 31.8966ZM181.274 28.124V27.8H179.274V28.124H181.274ZM181.274 27.8C181.274 26.2842 180.761 24.9877 179.677 24.0274L178.351 25.5246C178.947 26.0523 179.274 26.7718 179.274 27.8H181.274ZM179.677 24.0274C178.591 23.0656 177.107 22.66 175.378 22.66V24.66C176.818 24.66 177.757 24.9984 178.351 25.5246L179.677 24.0274ZM175.378 22.66H169.654V24.66H175.378V22.66ZM168.654 23.66V32.264H170.654V23.66H168.654ZM169.654 21.924H175.486V19.924H169.654V21.924ZM175.486 21.924C177.093 21.924 178.493 21.5199 179.582 20.6122L178.302 19.0758C177.663 19.6081 176.759 19.924 175.486 19.924V21.924ZM179.595 20.6018C180.692 19.6567 181.238 18.4017 181.238 16.928H179.238C179.238 17.8543 178.92 18.5433 178.29 19.0862L179.595 20.6018ZM181.238 16.928V16.568H179.238V16.928H181.238ZM181.238 16.568C181.238 15.077 180.696 13.812 179.582 12.8838L178.302 14.4202C178.916 14.932 179.238 15.611 179.238 16.568H181.238ZM179.605 12.9034C178.532 11.9532 177.118 11.536 175.486 11.536V13.536C176.782 13.536 177.672 13.8628 178.279 14.4006L179.605 12.9034ZM175.486 11.536H169.654V13.536H175.486V11.536ZM168.654 12.536V20.924H170.654V12.536H168.654ZM188.199 35H187.199V36H188.199V35ZM188.199 17.396V16.396H187.199V17.396H188.199ZM190.971 17.396H191.971V16.396H190.971V17.396ZM190.971 19.556H189.971V20.556H190.971V19.556ZM191.475 19.556V20.556H192.148L192.401 19.9324L191.475 19.556ZM192.915 17.864L193.401 18.7382L193.401 18.7382L192.915 17.864ZM197.559 17.324H198.559V16.324H197.559V17.324ZM197.559 19.916V20.916H198.559V19.916H197.559ZM192.195 20.996L192.866 21.737L192.868 21.7359L192.195 20.996ZM191.043 35V36H192.043V35H191.043ZM189.199 35V17.396H187.199V35H189.199ZM188.199 18.396H190.971V16.396H188.199V18.396ZM189.971 17.396V19.556H191.971V17.396H189.971ZM190.971 20.556H191.475V18.556H190.971V20.556ZM192.401 19.9324C192.638 19.3492 192.976 18.9742 193.401 18.7382L192.429 16.9898C191.558 17.4738 190.936 18.2268 190.548 19.1796L192.401 19.9324ZM193.401 18.7382C193.85 18.4884 194.517 18.324 195.471 18.324V16.324C194.313 16.324 193.276 16.5196 192.429 16.9898L193.401 18.7382ZM195.471 18.324H197.559V16.324H195.471V18.324ZM196.559 17.324V19.916H198.559V17.324H196.559ZM197.559 18.916H195.291V20.916H197.559V18.916ZM195.291 18.916C193.82 18.916 192.532 19.3381 191.522 20.2561L192.868 21.7359C193.442 21.2139 194.218 20.916 195.291 20.916V18.916ZM191.523 20.255C190.468 21.2111 190.043 22.6273 190.043 24.272H192.043C192.043 22.9407 192.385 22.1729 192.866 21.737L191.523 20.255ZM190.043 24.272V35H192.043V24.272H190.043ZM191.043 34H188.199V36H191.043V34ZM203.224 34.856L202.83 35.7751L202.83 35.7751L203.224 34.856ZM200.848 32.984L200.031 33.5607L200.031 33.5607L200.848 32.984ZM200.848 27.044L201.648 27.644L201.652 27.6381L201.656 27.6322L200.848 27.044ZM203.224 25.28L203.58 26.2145L203.589 26.2108L203.599 26.2069L203.224 25.28ZM212.548 24.668V25.668H213.548V24.668H212.548ZM211.432 20.42L210.724 21.1271L210.73 21.1329L210.736 21.1386L211.432 20.42ZM204.88 20.384L205.527 21.1465L205.533 21.1409L205.54 21.1352L204.88 20.384ZM203.26 23.12L202.951 24.0712L203.97 24.4017L204.23 23.3625L203.26 23.12ZM200.596 22.256L199.636 21.9751L199.363 22.9075L200.287 23.2072L200.596 22.256ZM201.964 19.592L202.749 20.2109L202.754 20.2052L202.758 20.1994L201.964 19.592ZM204.448 17.648L204.869 18.5548L204.878 18.5505L204.448 17.648ZM213.484 18.656L212.798 19.3838L212.805 19.3908L213.484 18.656ZM217.984 32.588H218.984V31.588H217.984V32.588ZM217.984 35V36H218.984V35H217.984ZM213.592 34.352L212.903 35.077L212.913 35.0863L212.923 35.0953L213.592 34.352ZM212.872 32.372H213.872V31.372H212.872V32.372ZM212.44 32.372V31.372H211.863L211.574 31.871L212.44 32.372ZM211.36 33.812L210.618 33.1411L210.616 33.143L211.36 33.812ZM209.56 35L209.183 34.0735L209.171 34.0785L209.159 34.0838L209.56 35ZM210.964 31.58L211.654 32.3037L211.654 32.3034L210.964 31.58ZM212.548 26.972H213.548V25.972H212.548V26.972ZM203.908 27.728L204.462 28.5601L204.468 28.5559L203.908 27.728ZM203.944 32.228L203.348 33.0311L203.354 33.0356L203.36 33.04L203.944 32.228ZM206.572 34.504C205.467 34.504 204.487 34.3096 203.618 33.9369L202.83 35.7751C203.976 36.2664 205.228 36.504 206.572 36.504V34.504ZM203.618 33.9369C202.762 33.5703 202.124 33.0576 201.665 32.4073L200.031 33.5607C200.724 34.5424 201.669 35.2777 202.83 35.7751L203.618 33.9369ZM201.665 32.4073C201.228 31.7884 200.984 31.0031 200.984 29.996H198.984C198.984 31.3409 199.316 32.5476 200.031 33.5607L201.665 32.4073ZM200.984 29.996C200.984 28.9575 201.231 28.1996 201.648 27.644L200.048 26.444C199.312 27.4244 198.984 28.6345 198.984 29.996H200.984ZM201.656 27.6322C202.107 27.0128 202.734 26.5367 203.58 26.2145L202.868 24.3455C201.697 24.7913 200.74 25.4912 200.039 26.4558L201.656 27.6322ZM203.599 26.2069C204.471 25.8538 205.469 25.668 206.608 25.668V23.668C205.25 23.668 203.992 23.8902 202.848 24.3531L203.599 26.2069ZM206.608 25.668H212.548V23.668H206.608V25.668ZM213.548 24.668V23.372H211.548V24.668H213.548ZM213.548 23.372C213.548 21.9129 213.105 20.6477 212.127 19.7014L210.736 21.1386C211.246 21.6323 211.548 22.3351 211.548 23.372H213.548ZM212.139 19.7129C211.165 18.7392 209.786 18.34 208.192 18.34V20.34C209.477 20.34 210.258 20.6608 210.724 21.1271L212.139 19.7129ZM208.192 18.34C206.617 18.34 205.249 18.7284 204.219 19.6328L205.54 21.1352C206.095 20.6476 206.934 20.34 208.192 20.34V18.34ZM204.233 19.6215C203.259 20.4476 202.621 21.5528 202.289 22.8775L204.23 23.3625C204.475 22.3832 204.916 21.6644 205.527 21.1465L204.233 19.6215ZM203.568 22.1688L200.904 21.3048L200.287 23.2072L202.951 24.0712L203.568 22.1688ZM201.555 22.5369C201.808 21.6735 202.206 20.9007 202.749 20.2109L201.178 18.9731C200.474 19.8673 199.959 20.8705 199.636 21.9751L201.555 22.5369ZM202.758 20.1994C203.274 19.5253 203.968 18.974 204.869 18.5547L204.026 16.7413C202.863 17.282 201.902 18.0267 201.169 18.9845L202.758 20.1994ZM204.878 18.5505C205.77 18.1247 206.876 17.892 208.228 17.892V15.892C206.651 15.892 205.237 16.1633 204.017 16.7455L204.878 18.5505ZM208.228 17.892C210.311 17.892 211.788 18.4322 212.798 19.3838L214.169 17.9282C212.683 16.5278 210.656 15.892 208.228 15.892V17.892ZM212.805 19.3908C213.8 20.3092 214.356 21.6463 214.356 23.552H216.356C216.356 21.2337 215.663 19.3068 214.162 17.9212L212.805 19.3908ZM214.356 23.552V31.508H216.356V23.552H214.356ZM214.356 31.508C214.356 32.0056 214.47 32.5651 214.877 33.0003C215.295 33.4485 215.855 33.588 216.364 33.588V31.588C216.282 31.588 216.253 31.5768 216.259 31.5788C216.263 31.5801 216.274 31.5847 216.29 31.5949C216.306 31.6054 216.323 31.6192 216.339 31.6357C216.354 31.6521 216.364 31.6671 216.37 31.6775C216.375 31.6876 216.376 31.6907 216.373 31.6834C216.368 31.6667 216.356 31.6134 216.356 31.508H214.356ZM216.364 33.588H217.984V31.588H216.364V33.588ZM216.984 32.588V35H218.984V32.588H216.984ZM217.984 34H215.5V36H217.984V34ZM215.5 34C214.896 34 214.518 33.8401 214.261 33.6087L212.923 35.0953C213.626 35.7279 214.519 36 215.5 36V34ZM214.28 33.627C214.025 33.3841 213.872 33.0592 213.872 32.552H211.872C211.872 33.5328 212.199 34.4079 212.903 35.077L214.28 33.627ZM213.872 32.552V32.372H211.872V32.552H213.872ZM212.872 31.372H212.44V33.372H212.872V31.372ZM211.574 31.871C211.354 32.2516 211.04 32.6751 210.618 33.1411L212.101 34.4829C212.591 33.9409 212.997 33.4044 213.305 32.873L211.574 31.871ZM210.616 33.143C210.31 33.4833 209.849 33.8029 209.183 34.0735L209.936 35.9265C210.806 35.5731 211.545 35.1007 212.103 34.481L210.616 33.143ZM209.159 34.0838C208.561 34.3452 207.716 34.504 206.572 34.504V36.504C207.875 36.504 209.022 36.3268 209.96 35.9162L209.159 34.0838ZM206.896 34.056C208.784 34.056 210.403 33.4962 211.654 32.3037L210.274 30.8563C209.46 31.6318 208.368 32.056 206.896 32.056V34.056ZM211.654 32.3034C212.952 31.0643 213.548 29.3732 213.548 27.368H211.548C211.548 28.9628 211.087 30.0797 210.273 30.8566L211.654 32.3034ZM213.548 27.368V26.972H211.548V27.368H213.548ZM212.548 25.972H206.716V27.972H212.548V25.972ZM206.716 25.972C205.439 25.972 204.294 26.2583 203.347 26.9001L204.468 28.5559C205.009 28.1897 205.736 27.972 206.716 27.972V25.972ZM203.353 26.8959C202.313 27.5893 201.828 28.6592 201.828 29.924H203.828C203.828 29.2208 204.062 28.8267 204.462 28.5601L203.353 26.8959ZM201.828 29.924C201.828 31.2016 202.332 32.2772 203.348 33.0311L204.539 31.4249C204.068 31.0748 203.828 30.6144 203.828 29.924H201.828ZM203.36 33.04C204.339 33.7436 205.543 34.056 206.896 34.056V32.056C205.848 32.056 205.084 31.8164 204.527 31.416L203.36 33.04ZM221.879 35H220.879V36H221.879V35ZM221.879 17.396V16.396H220.879V17.396H221.879ZM224.723 17.396H225.723V16.396H224.723V17.396ZM224.723 35V36H225.723V35H224.723ZM221.735 14.048L221.028 14.7551L221.038 14.7652L221.048 14.775L221.735 14.048ZM221.735 10.916L221.048 10.189L221.038 10.1988L221.028 10.2089L221.735 10.916ZM222.879 35V17.396H220.879V35H222.879ZM221.879 18.396H224.723V16.396H221.879V18.396ZM223.723 17.396V35H225.723V17.396H223.723ZM224.723 34H221.879V36H224.723V34ZM223.319 13.66C222.936 13.66 222.658 13.5442 222.421 13.321L221.048 14.775C221.676 15.3678 222.453 15.66 223.319 15.66V13.66ZM222.442 13.3409C222.237 13.1366 222.123 12.8826 222.123 12.5H220.123C220.123 13.3654 220.416 14.1434 221.028 14.7551L222.442 13.3409ZM222.123 12.5C222.123 12.0816 222.245 11.8198 222.442 11.6231L221.028 10.2089C220.408 10.8282 220.123 11.6224 220.123 12.5H222.123ZM222.421 11.643C222.658 11.4198 222.936 11.304 223.319 11.304V9.304C222.453 9.304 221.676 9.59621 221.048 10.189L222.421 11.643ZM223.319 11.304C223.701 11.304 223.955 11.4189 224.16 11.6231L225.574 10.2089C224.962 9.59714 224.184 9.304 223.319 9.304V11.304ZM224.16 11.6231C224.356 11.8198 224.479 12.0816 224.479 12.5H226.479C226.479 11.6224 226.193 10.8282 225.574 10.2089L224.16 11.6231ZM224.479 12.5C224.479 12.8826 224.364 13.1366 224.16 13.3409L225.574 14.7551C226.185 14.1434 226.479 13.3654 226.479 12.5H224.479ZM224.16 13.3409C223.955 13.5451 223.701 13.66 223.319 13.66V15.66C224.184 15.66 224.962 15.3669 225.574 14.7551L224.16 13.3409ZM230.703 35H229.703V36H230.703V35ZM230.703 17.396V16.396H229.703V17.396H230.703ZM233.475 17.396H234.475V16.396H233.475V17.396ZM233.475 20.384H232.475V21.384H233.475V20.384ZM233.979 20.384V21.384H234.621L234.888 20.7998L233.979 20.384ZM235.923 18.116L236.516 18.9211L236.52 18.9185L235.923 18.116ZM243.555 17.9L243.083 18.7818L243.092 18.7862L243.555 17.9ZM246.075 20.348L246.941 19.8477L246.941 19.8477L246.075 20.348ZM247.011 35V36H248.011V35H247.011ZM244.167 35H243.167V36H244.167V35ZM242.835 20.744L242.159 21.4812L242.169 21.4903L242.835 20.744ZM235.131 21.212L234.416 20.5127L234.408 20.5208L235.131 21.212ZM233.547 35V36H234.547V35H233.547ZM231.703 35V17.396H229.703V35H231.703ZM230.703 18.396H233.475V16.396H230.703V18.396ZM232.475 17.396V20.384H234.475V17.396H232.475ZM233.475 21.384H233.979V19.384H233.475V21.384ZM234.888 20.7998C235.187 20.1456 235.71 19.5149 236.516 18.9211L235.33 17.3109C234.312 18.0611 233.538 18.9424 233.069 19.9682L234.888 20.7998ZM236.52 18.9185C237.212 18.4035 238.332 18.072 240.027 18.072V16.072C238.122 16.072 236.506 16.4365 235.326 17.3135L236.52 18.9185ZM240.027 18.072C241.204 18.072 242.214 18.3169 243.083 18.7818L244.026 17.0182C242.832 16.3791 241.49 16.072 240.027 16.072V18.072ZM243.092 18.7862C243.971 19.2461 244.675 19.9244 245.209 20.8483L246.941 19.8477C246.226 18.6116 245.25 17.6579 244.018 17.0138L243.092 18.7862ZM245.209 20.8483C245.724 21.7404 246.011 22.889 246.011 24.344H248.011C248.011 22.631 247.673 21.1156 246.941 19.8477L245.209 20.8483ZM246.011 24.344V35H248.011V24.344H246.011ZM247.011 34H244.167V36H247.011V34ZM245.167 35V24.56H243.167V35H245.167ZM245.167 24.56C245.167 22.6595 244.685 21.0545 243.5 19.9977L242.169 21.4903C242.76 22.0175 243.167 22.9565 243.167 24.56H245.167ZM243.511 20.0068C242.416 19.0038 240.975 18.556 239.307 18.556V20.556C240.615 20.556 241.525 20.9002 242.159 21.4812L243.511 20.0068ZM239.307 18.556C237.364 18.556 235.705 19.1956 234.416 20.5127L235.846 21.9113C236.717 21.0204 237.841 20.556 239.307 20.556V18.556ZM234.408 20.5208C233.11 21.8779 232.547 23.8131 232.547 26.144H234.547C234.547 24.1069 235.04 22.7541 235.853 21.9032L234.408 20.5208ZM232.547 26.144V35H234.547V26.144H232.547ZM233.547 34H230.703V36H233.547V34Z" fill="url(#paint2_linear_404_676)" mask="url(#path-2-outside-1_404_676)"/>
<defs>
<linearGradient id="paint0_linear_404_676" x1="22" y1="1.69531" x2="22" y2="44.3087" gradientUnits="userSpaceOnUse">
<stop stop-color="#0083E3"/>
<stop offset="1" stop-color="#FCB604"/>
</linearGradient>
<linearGradient id="paint1_linear_404_676" x1="150" y1="0" x2="150" y2="46" gradientUnits="userSpaceOnUse">
<stop stop-color="#0083E3"/>
<stop offset="1" stop-color="#FCB604"/>
</linearGradient>
<linearGradient id="paint2_linear_404_676" x1="150" y1="0" x2="150" y2="46" gradientUnits="userSpaceOnUse">
<stop stop-color="#0083E3"/>
<stop offset="1" stop-color="#FCB604"/>
</linearGradient>
<clipPath id="clip0_404_676">
<rect width="44" height="44" fill="white" transform="translate(0 1)"/>
</clipPath>
</defs>
</svg>
