<svg width="563" height="590" viewBox="0 0 563 590" fill="none" xmlns="http://www.w3.org/2000/svg">
<g filter="url(#filter0_d_327_757)">
<rect width="512" height="512" transform="translate(29 50)" fill="white"/>
<path d="M30.2321 37C30.2321 94.0526 30.84 116.981 30.84 177.656M30.84 177.656C30.84 238.33 30.746 348.917 30.2321 423.242C29.7181 497.568 29.3194 569.913 29.3194 569.913C29.3194 580.411 28.1952 568.022 28.2772 562.437C28.3797 555.454 29.3632 356.796 29.3632 339.454C29.3632 322.111 30.2321 233.829 30.84 177.656Z" stroke="black" stroke-width="6" stroke-miterlimit="10" stroke-linecap="round" stroke-linejoin="round"/>
<path d="M455.792 561.73C539.238 561.73 527.583 561.73 555 561.73C554.528 562.004 550.277 563.048 548.522 563.26C546.33 563.524 488.801 563.38 476.523 563.38C434.493 563.38 244.627 562.393 232.201 562.393M455.792 561.73C455.792 561.73 254.533 563.38 222.434 563.38C190.335 563.38 197.927 563.425 130.163 563.38C79.5002 563.347 18.9198 563.38 14.8431 563.38C10.7665 563.38 12.2707 561.401 12.2707 561.401C40.7663 562.393 90.3591 562.393 155.492 562.393C177.936 562.393 204.188 562.393 232.201 562.393M455.792 561.73C394.791 561.73 308.336 562.393 232.201 562.393" stroke="black" stroke-width="6" stroke-miterlimit="10" stroke-linecap="round" stroke-linejoin="round"/>
<path d="M540.446 307.672C540.447 374.066 541.8 415.84 541.8 459.251C541.8 502.663 541.109 576.207 541.109 576.207C541.109 576.207 539.517 579.306 539.517 573.25C539.517 567.194 540.558 524.14 540.446 462.266C540.335 400.392 540.34 335.557 540.446 307.672ZM540.446 307.672C540.446 276.374 539.724 212.441 539.766 176.864C539.814 136.971 539.766 79.5211 539.766 41" stroke="black" stroke-width="6" stroke-miterlimit="10" stroke-linecap="round" stroke-linejoin="round"/>
<path d="M22.9995 50.8621C52.2191 50.8621 77.7126 50.8621 92.7438 50.8621M92.7438 50.8621C107.775 50.8621 174.513 51.1537 202.772 51.1537M92.7438 50.8621C92.7438 50.8621 125.34 49.9546 144.451 49.9546C163.562 49.9546 202.772 51.1537 202.772 51.1537M559.999 51.1537C530.093 51.1537 543.921 50.8621 514.216 50.8621C497.284 50.8621 476.571 51.348 446.877 51.1537M282.314 49.9546C302.864 49.9827 410.275 50.9141 446.877 51.1537M282.314 49.9546C261.06 49.9256 231.03 51.1537 202.772 51.1537M282.314 49.9546C282.314 49.9546 333.843 49.9546 362.703 49.9546M446.877 51.1537C446.877 51.1537 391.562 49.9546 362.703 49.9546M202.772 51.1537C220.092 51.1537 260.249 51.1537 282.314 51.1537C304.378 51.1537 345.1 50.3543 362.703 49.9546" stroke="black" stroke-width="6" stroke-miterlimit="10" stroke-linecap="round" stroke-linejoin="round"/>
<rect x="77" y="106" width="416" height="400" fill="#494848" fill-opacity="0.19" stroke="black" stroke-width="4"/>
<path d="M516 104.38C516 104.38 518.499 95.1927 518.554 84.0386C518.642 66.0366 512.643 47.1129 513.257 29.121C513.661 17.2572 516.264 1.00002 516.264 1.00002" stroke="black" stroke-width="7"/>
<circle cx="223" cy="83.1484" r="10" fill="black"/>
<circle cx="346" cy="83.1484" r="10" fill="black"/>
</g>
<defs>
<filter id="filter0_d_327_757" x="-0.000976562" y="0.447144" width="563" height="589.553" filterUnits="userSpaceOnUse" color-interpolation-filters="sRGB">
<feFlood flood-opacity="0" result="BackgroundImageFix"/>
<feColorMatrix in="SourceAlpha" type="matrix" values="0 0 0 0 0 0 0 0 0 0 0 0 0 0 0 0 0 0 127 0" result="hardAlpha"/>
<feOffset dx="-9" dy="10"/>
<feComposite in2="hardAlpha" operator="out"/>
<feColorMatrix type="matrix" values="0 0 0 0 0 0 0 0 0 0 0 0 0 0 0 0 0 0 0.44 0"/>
<feBlend mode="normal" in2="BackgroundImageFix" result="effect1_dropShadow_327_757"/>
<feBlend mode="normal" in="SourceGraphic" in2="effect1_dropShadow_327_757" result="shape"/>
</filter>
</defs>
</svg>
