<svg width="1283" height="8" viewBox="0 0 1283 8" fill="none" xmlns="http://www.w3.org/2000/svg">
<path d="M2.99976 4.41169C72.4847 4.41169 133.109 4.41169 168.853 4.41169M168.853 4.41169C204.598 4.41169 363.303 4.70321 430.503 4.70322M168.853 4.41169C168.853 4.41169 246.368 3.50417 291.814 3.50417C337.261 3.50417 430.503 4.70322 430.503 4.70322M1280 4.70322C1208.88 4.70322 1241.76 4.41169 1171.13 4.41169C1130.86 4.41169 1081.6 4.89756 1010.99 4.70322M619.656 3.50417C668.524 3.53224 923.952 4.46367 1010.99 4.70322M619.656 3.50417C569.115 3.47513 497.702 4.70322 430.503 4.70322M619.656 3.50417C619.656 3.50417 742.194 3.50417 810.823 3.50417M1010.99 4.70322C1010.99 4.70322 879.452 3.50417 810.823 3.50417M430.503 4.70322C471.691 4.70322 567.186 4.70322 619.656 4.70322C672.125 4.70322 768.963 3.90385 810.823 3.50417" stroke="black" stroke-width="6" stroke-miterlimit="10" stroke-linecap="round" stroke-linejoin="round"/>
</svg>
